<?xml version="1.0" encoding="UTF-8" standalone="no"?>
<!DOCTYPE svg PUBLIC "-//W3C//DTD SVG 1.1//EN"
 "http://www.w3.org/Graphics/SVG/1.1/DTD/svg11.dtd">
<!-- Generated by graphviz version 2.38.0 (20140413.2041)
 -->
<!-- Title: G Pages: 1 -->
<svg width="1000pt" height="451pt"
 viewBox="0.00 0.00 1000.27 451.03" xmlns="http://www.w3.org/2000/svg" xmlns:xlink="http://www.w3.org/1999/xlink">
<g id="graph0" class="graph" transform="scale(1 1) rotate(0) translate(4 447.031)">
<title>G</title>
<polygon fill="white" stroke="none" points="-4,4 -4,-447.031 996.274,-447.031 996.274,4 -4,4"/>
<g id="clust1" class="cluster"><title>cluster_#21_#21</title>
<polygon fill="darkgreen" stroke="darkgreen" points="81.5,-44 81.5,-388 805.5,-388 805.5,-44 81.5,-44"/>
</g>
<g id="clust2" class="cluster"><title>cluster_#21_#17</title>
<polygon fill="cornflowerblue" stroke="cornflowerblue" points="89.5,-52 89.5,-380 549.5,-380 549.5,-52 89.5,-52"/>
</g>
<g id="clust3" class="cluster"><title>cluster_#21_#15</title>
<polygon fill="pink" stroke="pink" points="97.5,-136 97.5,-372 541.5,-372 541.5,-136 97.5,-136"/>
</g>
<g id="clust4" class="cluster"><title>cluster_#21_#12</title>
<polygon fill="cornflowerblue" stroke="cornflowerblue" points="105.5,-144 105.5,-364 317.5,-364 317.5,-144 105.5,-144"/>
</g>
<g id="clust5" class="cluster"><title>cluster_#21_#11</title>
<polygon fill="cornflowerblue" stroke="cornflowerblue" points="113.5,-216 113.5,-356 309.5,-356 309.5,-216 113.5,-216"/>
</g>
<g id="clust6" class="cluster"><title>cluster_#21_#0</title>
<polygon fill="white" stroke="white" points="135.5,-296 135.5,-348 287.5,-348 287.5,-296 135.5,-296"/>
</g>
<g id="clust7" class="cluster"><title>cluster_#21_#1</title>
<polygon fill="white" stroke="white" points="121.5,-224 121.5,-276 301.5,-276 301.5,-224 121.5,-224"/>
</g>
<g id="clust8" class="cluster"><title>cluster_#21_#2</title>
<polygon fill="white" stroke="white" points="133.5,-152 133.5,-204 289.5,-204 289.5,-152 133.5,-152"/>
</g>
<g id="clust9" class="cluster"><title>cluster_#21_#14</title>
<polygon fill="cornflowerblue" stroke="cornflowerblue" points="325.5,-144 325.5,-364 533.5,-364 533.5,-144 325.5,-144"/>
</g>
<g id="clust10" class="cluster"><title>cluster_#21_#13</title>
<polygon fill="cornflowerblue" stroke="cornflowerblue" points="340.5,-216 340.5,-356 518.5,-356 518.5,-216 340.5,-216"/>
</g>
<g id="clust11" class="cluster"><title>cluster_#21_#3</title>
<polygon fill="white" stroke="white" points="348.5,-296 348.5,-348 510.5,-348 510.5,-296 348.5,-296"/>
</g>
<g id="clust12" class="cluster"><title>cluster_#21_#4</title>
<polygon fill="white" stroke="white" points="351.5,-224 351.5,-276 507.5,-276 507.5,-224 351.5,-224"/>
</g>
<g id="clust13" class="cluster"><title>cluster_#21_#5</title>
<polygon fill="white" stroke="white" points="333.5,-152 333.5,-204 525.5,-204 525.5,-152 333.5,-152"/>
</g>
<g id="clust14" class="cluster"><title>cluster_#21_#16</title>
<polygon fill="pink" stroke="pink" points="130.5,-60 130.5,-128 518.5,-128 518.5,-60 130.5,-60"/>
</g>
<g id="clust15" class="cluster"><title>cluster_#21_#6</title>
<polygon fill="white" stroke="white" points="138.5,-68 138.5,-120 340.5,-120 340.5,-68 138.5,-68"/>
</g>
<g id="clust16" class="cluster"><title>cluster_#21_#7</title>
<polygon fill="white" stroke="white" points="348.5,-68 348.5,-120 510.5,-120 510.5,-68 348.5,-68"/>
</g>
<g id="clust17" class="cluster"><title>cluster_#21_#20</title>
<polygon fill="white" stroke="white" points="557.5,-136 557.5,-372 797.5,-372 797.5,-136 557.5,-136"/>
</g>
<g id="clust18" class="cluster"><title>cluster_#21_#19</title>
<polygon fill="cornflowerblue" stroke="cornflowerblue" points="565.5,-144 565.5,-364 789.5,-364 789.5,-144 565.5,-144"/>
</g>
<g id="clust19" class="cluster"><title>cluster_#21_#18</title>
<polygon fill="cornflowerblue" stroke="cornflowerblue" points="573.5,-216 573.5,-356 781.5,-356 781.5,-216 573.5,-216"/>
</g>
<g id="clust20" class="cluster"><title>cluster_#21_#8</title>
<polygon fill="white" stroke="white" points="581.5,-296 581.5,-348 773.5,-348 773.5,-296 581.5,-296"/>
</g>
<g id="clust21" class="cluster"><title>cluster_#21_#9</title>
<polygon fill="white" stroke="white" points="601.5,-224 601.5,-276 753.5,-276 753.5,-224 601.5,-224"/>
</g>
<g id="clust22" class="cluster"><title>cluster_#21_#10</title>
<polygon fill="white" stroke="white" points="598.5,-152 598.5,-204 772.5,-204 772.5,-152 598.5,-152"/>
</g>
<!-- #21_in_#0_0_0_A -->
<g id="node1" class="node"><title>#21_in_#0_0_0_A</title>
<polygon fill="none" stroke="black" points="147,-432 0,-432 0,-396 147,-396 147,-432"/>
<text text-anchor="middle" x="73.5" y="-410.3" font-family="Times,serif" font-size="14.00">#21_in_#0_0_0_A</text>
</g>
<!-- #21_#0_0_f -->
<g id="node6" class="node"><title>#21_#0_0_f</title>
<ellipse fill="none" stroke="black" cx="211.5" cy="-322" rx="67.6881" ry="18"/>
<text text-anchor="middle" x="211.5" y="-318.3" font-family="Times,serif" font-size="14.00">#21_#0_0_f</text>
</g>
<!-- #21_in_#0_0_0_A&#45;&gt;#21_#0_0_f -->
<g id="edge1" class="edge"><title>#21_in_#0_0_0_A&#45;&gt;#21_#0_0_f</title>
<path fill="none" stroke="black" d="M99.7816,-395.86C122.208,-381.234 154.562,-360.134 178.685,-344.401"/>
<polygon fill="black" stroke="black" points="180.703,-347.264 187.167,-338.869 176.879,-341.4 180.703,-347.264"/>
</g>
<!-- #21_in_#0_0_1_B -->
<g id="node2" class="node"><title>#21_in_#0_0_1_B</title>
<polygon fill="none" stroke="black" points="312,-432 165,-432 165,-396 312,-396 312,-432"/>
<text text-anchor="middle" x="238.5" y="-410.3" font-family="Times,serif" font-size="14.00">#21_in_#0_0_1_B</text>
</g>
<!-- #21_in_#0_0_1_B&#45;&gt;#21_#0_0_f -->
<g id="edge2" class="edge"><title>#21_in_#0_0_1_B&#45;&gt;#21_#0_0_f</title>
<path fill="none" stroke="black" d="M233.294,-395.647C229.385,-382.615 223.96,-364.533 219.501,-349.669"/>
<polygon fill="black" stroke="black" points="222.824,-348.567 216.598,-339.994 216.119,-350.578 222.824,-348.567"/>
</g>
<!-- #21_in_#3_0_0_A -->
<g id="node3" class="node"><title>#21_in_#3_0_0_A</title>
<polygon fill="none" stroke="black" points="503,-432 356,-432 356,-396 503,-396 503,-432"/>
<text text-anchor="middle" x="429.5" y="-410.3" font-family="Times,serif" font-size="14.00">#21_in_#3_0_0_A</text>
</g>
<!-- #21_#3_0_id -->
<g id="node9" class="node"><title>#21_#3_0_id</title>
<ellipse fill="none" stroke="black" cx="429.5" cy="-322" rx="73.387" ry="18"/>
<text text-anchor="middle" x="429.5" y="-318.3" font-family="Times,serif" font-size="14.00">#21_#3_0_id</text>
</g>
<!-- #21_in_#3_0_0_A&#45;&gt;#21_#3_0_id -->
<g id="edge3" class="edge"><title>#21_in_#3_0_0_A&#45;&gt;#21_#3_0_id</title>
<path fill="none" stroke="black" d="M429.5,-395.647C429.5,-382.823 429.5,-365.108 429.5,-350.381"/>
<polygon fill="black" stroke="black" points="433,-350.3 429.5,-340.3 426,-350.3 433,-350.3"/>
</g>
<!-- #21_in_#8_0_0_C -->
<g id="node4" class="node"><title>#21_in_#8_0_0_C</title>
<polygon fill="none" stroke="black" points="930.5,-432 782.5,-432 782.5,-396 930.5,-396 930.5,-432"/>
<text text-anchor="middle" x="856.5" y="-410.3" font-family="Times,serif" font-size="14.00">#21_in_#8_0_0_C</text>
</g>
<!-- #21_#8_0_swap -->
<g id="node14" class="node"><title>#21_#8_0_swap</title>
<ellipse fill="none" stroke="black" cx="677.5" cy="-322" rx="88.2844" ry="18"/>
<text text-anchor="middle" x="677.5" y="-318.3" font-family="Times,serif" font-size="14.00">#21_#8_0_swap</text>
</g>
<!-- #21_in_#8_0_0_C&#45;&gt;#21_#8_0_swap -->
<g id="edge4" class="edge"><title>#21_in_#8_0_0_C&#45;&gt;#21_#8_0_swap</title>
<path fill="none" stroke="black" d="M822.41,-395.86C792.682,-380.913 749.508,-359.205 718.021,-343.374"/>
<polygon fill="black" stroke="black" points="719.569,-340.234 709.062,-338.869 716.424,-346.488 719.569,-340.234"/>
</g>
<!-- #21_out_#10_0_0_A -->
<g id="node19" class="node"><title>#21_out_#10_0_0_A</title>
<polygon fill="none" stroke="black" points="979.5,-112 813.5,-112 813.5,-76 979.5,-76 979.5,-112"/>
<text text-anchor="middle" x="896.5" y="-90.3" font-family="Times,serif" font-size="14.00">#21_out_#10_0_0_A</text>
</g>
<!-- #21_in_#8_0_0_C&#45;&gt;#21_out_#10_0_0_A -->
<g id="edge21" class="edge"><title>#21_in_#8_0_0_C:n&#45;&gt;#21_out_#10_0_0_A:s</title>
<path fill="none" stroke="black" d="M863.682,-440.502C880.297,-446.456 920.711,-440.519 930.5,-432 1039.03,-337.541 968.58,-255.465 979.5,-112 980.714,-96.0462 990.745,-87.3817 979.5,-76 966.536,-62.8785 896.5,-56.5542 896.5,-75"/>
<polygon fill="black" stroke="black" points="865.944,-437.803 856.5,-433 860.887,-442.644 865.944,-437.803"/>
</g>
<!-- #21_in_#8_0_1_D -->
<g id="node5" class="node"><title>#21_in_#8_0_1_D</title>
<polygon fill="none" stroke="black" points="751.5,-432 603.5,-432 603.5,-396 751.5,-396 751.5,-432"/>
<text text-anchor="middle" x="677.5" y="-410.3" font-family="Times,serif" font-size="14.00">#21_in_#8_0_1_D</text>
</g>
<!-- #21_in_#8_0_1_D&#45;&gt;#21_#8_0_swap -->
<g id="edge5" class="edge"><title>#21_in_#8_0_1_D&#45;&gt;#21_#8_0_swap</title>
<path fill="none" stroke="black" d="M677.5,-395.647C677.5,-382.823 677.5,-365.108 677.5,-350.381"/>
<polygon fill="black" stroke="black" points="681,-350.3 677.5,-340.3 674,-350.3 681,-350.3"/>
</g>
<!-- #21_#1_0_dup -->
<g id="node7" class="node"><title>#21_#1_0_dup</title>
<ellipse fill="none" stroke="black" cx="211.5" cy="-250" rx="81.7856" ry="18"/>
<text text-anchor="middle" x="211.5" y="-246.3" font-family="Times,serif" font-size="14.00">#21_#1_0_dup</text>
</g>
<!-- #21_#0_0_f&#45;&gt;#21_#1_0_dup -->
<g id="edge9" class="edge"><title>#21_#0_0_f&#45;&gt;#21_#1_0_dup</title>
<path fill="none" stroke="black" d="M211.5,-303.697C211.5,-295.983 211.5,-286.712 211.5,-278.112"/>
<polygon fill="black" stroke="black" points="215,-278.104 211.5,-268.104 208,-278.104 215,-278.104"/>
</g>
<!-- #21_#2_0_g -->
<g id="node8" class="node"><title>#21_#2_0_g</title>
<ellipse fill="none" stroke="black" cx="211.5" cy="-178" rx="70.3881" ry="18"/>
<text text-anchor="middle" x="211.5" y="-174.3" font-family="Times,serif" font-size="14.00">#21_#2_0_g</text>
</g>
<!-- #21_#1_0_dup&#45;&gt;#21_#2_0_g -->
<g id="edge10" class="edge"><title>#21_#1_0_dup&#45;&gt;#21_#2_0_g</title>
<path fill="none" stroke="black" d="M205.584,-231.697C204.789,-223.983 204.562,-214.712 204.905,-206.112"/>
<polygon fill="black" stroke="black" points="208.398,-206.324 205.605,-196.104 201.415,-205.836 208.398,-206.324"/>
</g>
<!-- #21_#1_0_dup&#45;&gt;#21_#2_0_g -->
<g id="edge11" class="edge"><title>#21_#1_0_dup&#45;&gt;#21_#2_0_g</title>
<path fill="none" stroke="black" d="M217.416,-231.697C218.211,-223.983 218.438,-214.712 218.095,-206.112"/>
<polygon fill="black" stroke="black" points="221.585,-205.836 217.395,-196.104 214.602,-206.324 221.585,-205.836"/>
</g>
<!-- #21_#6_0_codup -->
<g id="node12" class="node"><title>#21_#6_0_codup</title>
<ellipse fill="none" stroke="black" cx="239.5" cy="-94" rx="92.8835" ry="18"/>
<text text-anchor="middle" x="239.5" y="-90.3" font-family="Times,serif" font-size="14.00">#21_#6_0_codup</text>
</g>
<!-- #21_#2_0_g&#45;&gt;#21_#6_0_codup -->
<g id="edge15" class="edge"><title>#21_#2_0_g&#45;&gt;#21_#6_0_codup</title>
<path fill="none" stroke="black" d="M217.302,-160.01C221.093,-148.905 226.124,-134.172 230.438,-121.54"/>
<polygon fill="black" stroke="black" points="233.787,-122.563 233.706,-111.969 227.162,-120.301 233.787,-122.563"/>
</g>
<!-- #21_#4_0_h -->
<g id="node10" class="node"><title>#21_#4_0_h</title>
<ellipse fill="none" stroke="black" cx="429.5" cy="-250" rx="70.3881" ry="18"/>
<text text-anchor="middle" x="429.5" y="-246.3" font-family="Times,serif" font-size="14.00">#21_#4_0_h</text>
</g>
<!-- #21_#3_0_id&#45;&gt;#21_#4_0_h -->
<g id="edge12" class="edge"><title>#21_#3_0_id&#45;&gt;#21_#4_0_h</title>
<path fill="none" stroke="black" d="M429.5,-303.697C429.5,-295.983 429.5,-286.712 429.5,-278.112"/>
<polygon fill="black" stroke="black" points="433,-278.104 429.5,-268.104 426,-278.104 433,-278.104"/>
</g>
<!-- #21_#5_0_swap -->
<g id="node11" class="node"><title>#21_#5_0_swap</title>
<ellipse fill="none" stroke="black" cx="429.5" cy="-178" rx="88.2844" ry="18"/>
<text text-anchor="middle" x="429.5" y="-174.3" font-family="Times,serif" font-size="14.00">#21_#5_0_swap</text>
</g>
<!-- #21_#4_0_h&#45;&gt;#21_#5_0_swap -->
<g id="edge13" class="edge"><title>#21_#4_0_h&#45;&gt;#21_#5_0_swap</title>
<path fill="none" stroke="black" d="M423.622,-232.055C422.804,-224.346 422.561,-215.027 422.895,-206.364"/>
<polygon fill="black" stroke="black" points="426.394,-206.491 423.587,-196.275 419.411,-206.012 426.394,-206.491"/>
</g>
<!-- #21_#4_0_h&#45;&gt;#21_#5_0_swap -->
<g id="edge14" class="edge"><title>#21_#4_0_h&#45;&gt;#21_#5_0_swap</title>
<path fill="none" stroke="black" d="M435.378,-232.055C436.196,-224.346 436.439,-215.027 436.105,-206.364"/>
<polygon fill="black" stroke="black" points="439.589,-206.012 435.413,-196.275 432.606,-206.491 439.589,-206.012"/>
</g>
<!-- #21_#5_0_swap&#45;&gt;#21_#6_0_codup -->
<g id="edge16" class="edge"><title>#21_#5_0_swap&#45;&gt;#21_#6_0_codup</title>
<path fill="none" stroke="black" d="M393.315,-161.383C362.642,-148.146 318.484,-129.088 285.342,-114.784"/>
<polygon fill="black" stroke="black" points="286.441,-111.447 275.873,-110.698 283.668,-117.874 286.441,-111.447"/>
</g>
<!-- #21_#7_0_id -->
<g id="node13" class="node"><title>#21_#7_0_id</title>
<ellipse fill="none" stroke="black" cx="429.5" cy="-94" rx="73.387" ry="18"/>
<text text-anchor="middle" x="429.5" y="-90.3" font-family="Times,serif" font-size="14.00">#21_#7_0_id</text>
</g>
<!-- #21_#5_0_swap&#45;&gt;#21_#7_0_id -->
<g id="edge17" class="edge"><title>#21_#5_0_swap&#45;&gt;#21_#7_0_id</title>
<path fill="none" stroke="black" d="M429.5,-159.61C429.5,-148.774 429.5,-134.601 429.5,-122.291"/>
<polygon fill="black" stroke="black" points="433,-122.084 429.5,-112.084 426,-122.084 433,-122.084"/>
</g>
<!-- #21_out_#6_0_0_D -->
<g id="node17" class="node"><title>#21_out_#6_0_0_D</title>
<polygon fill="none" stroke="black" points="318.5,-36 160.5,-36 160.5,-0 318.5,-0 318.5,-36"/>
<text text-anchor="middle" x="239.5" y="-14.3" font-family="Times,serif" font-size="14.00">#21_out_#6_0_0_D</text>
</g>
<!-- #21_#6_0_codup&#45;&gt;#21_out_#6_0_0_D -->
<g id="edge6" class="edge"><title>#21_#6_0_codup&#45;&gt;#21_out_#6_0_0_D</title>
<path fill="none" stroke="black" d="M239.5,-75.8369C239.5,-67.0575 239.5,-56.1626 239.5,-46.2675"/>
<polygon fill="black" stroke="black" points="243,-46.07 239.5,-36.07 236,-46.07 243,-46.07"/>
</g>
<!-- #21_out_#7_0_0_C -->
<g id="node18" class="node"><title>#21_out_#7_0_0_C</title>
<polygon fill="none" stroke="black" points="508.5,-36 350.5,-36 350.5,-0 508.5,-0 508.5,-36"/>
<text text-anchor="middle" x="429.5" y="-14.3" font-family="Times,serif" font-size="14.00">#21_out_#7_0_0_C</text>
</g>
<!-- #21_#7_0_id&#45;&gt;#21_out_#7_0_0_C -->
<g id="edge7" class="edge"><title>#21_#7_0_id&#45;&gt;#21_out_#7_0_0_C</title>
<path fill="none" stroke="black" d="M429.5,-75.8369C429.5,-67.0575 429.5,-56.1626 429.5,-46.2675"/>
<polygon fill="black" stroke="black" points="433,-46.07 429.5,-36.07 426,-46.07 433,-46.07"/>
</g>
<!-- #21_#9_0_i -->
<g id="node15" class="node"><title>#21_#9_0_i</title>
<ellipse fill="none" stroke="black" cx="677.5" cy="-250" rx="67.6881" ry="18"/>
<text text-anchor="middle" x="677.5" y="-246.3" font-family="Times,serif" font-size="14.00">#21_#9_0_i</text>
</g>
<!-- #21_#8_0_swap&#45;&gt;#21_#9_0_i -->
<g id="edge18" class="edge"><title>#21_#8_0_swap&#45;&gt;#21_#9_0_i</title>
<path fill="none" stroke="black" d="M671.584,-303.697C670.789,-295.983 670.562,-286.712 670.905,-278.112"/>
<polygon fill="black" stroke="black" points="674.398,-278.324 671.605,-268.104 667.415,-277.836 674.398,-278.324"/>
</g>
<!-- #21_#8_0_swap&#45;&gt;#21_#9_0_i -->
<g id="edge19" class="edge"><title>#21_#8_0_swap&#45;&gt;#21_#9_0_i</title>
<path fill="none" stroke="black" d="M683.416,-303.697C684.211,-295.983 684.438,-286.712 684.095,-278.112"/>
<polygon fill="black" stroke="black" points="687.585,-277.836 683.395,-268.104 680.602,-278.324 687.585,-277.836"/>
</g>
<!-- #21_#10_0_id -->
<g id="node16" class="node"><title>#21_#10_0_id</title>
<ellipse fill="none" stroke="black" cx="685.5" cy="-178" rx="79.0865" ry="18"/>
<text text-anchor="middle" x="685.5" y="-174.3" font-family="Times,serif" font-size="14.00">#21_#10_0_id</text>
</g>
<!-- #21_#9_0_i&#45;&gt;#21_#10_0_id -->
<g id="edge20" class="edge"><title>#21_#9_0_i&#45;&gt;#21_#10_0_id</title>
<path fill="none" stroke="black" d="M679.478,-231.697C680.359,-223.983 681.419,-214.712 682.401,-206.112"/>
<polygon fill="black" stroke="black" points="685.887,-206.437 683.545,-196.104 678.932,-205.642 685.887,-206.437"/>
</g>
<!-- #21_#10_0_id&#45;&gt;#21_out_#10_0_0_A -->
<g id="edge8" class="edge"><title>#21_#10_0_id&#45;&gt;#21_out_#10_0_0_A</title>
<path fill="none" stroke="black" d="M723.711,-162.15C757.07,-149.186 805.834,-130.235 843.059,-115.769"/>
<polygon fill="black" stroke="black" points="844.69,-118.89 852.743,-112.005 842.154,-112.365 844.69,-118.89"/>
</g>
</g>
</svg>
