<?xml version="1.0" encoding="UTF-8" standalone="no"?>
<!DOCTYPE svg PUBLIC "-//W3C//DTD SVG 1.1//EN"
 "http://www.w3.org/Graphics/SVG/1.1/DTD/svg11.dtd">
<!-- Generated by graphviz version 2.38.0 (20140413.2041)
 -->
<!-- Title: G Pages: 1 -->
<svg width="566pt" height="428pt"
 viewBox="0.00 0.00 565.50 428.00" xmlns="http://www.w3.org/2000/svg" xmlns:xlink="http://www.w3.org/1999/xlink">
<g id="graph0" class="graph" transform="scale(1 1) rotate(0) translate(4 424)">
<title>G</title>
<polygon fill="white" stroke="none" points="-4,4 -4,-424 561.5,-424 561.5,4 -4,4"/>
<g id="clust1" class="cluster"><title>cluster_#17_#17</title>
<polygon fill="cornflowerblue" stroke="cornflowerblue" points="89.5,-48 89.5,-376 549.5,-376 549.5,-48 89.5,-48"/>
</g>
<g id="clust2" class="cluster"><title>cluster_#17_#15</title>
<polygon fill="pink" stroke="pink" points="97.5,-132 97.5,-368 541.5,-368 541.5,-132 97.5,-132"/>
</g>
<g id="clust3" class="cluster"><title>cluster_#17_#12</title>
<polygon fill="cornflowerblue" stroke="cornflowerblue" points="105.5,-140 105.5,-360 317.5,-360 317.5,-140 105.5,-140"/>
</g>
<g id="clust4" class="cluster"><title>cluster_#17_#11</title>
<polygon fill="cornflowerblue" stroke="cornflowerblue" points="113.5,-212 113.5,-352 309.5,-352 309.5,-212 113.5,-212"/>
</g>
<g id="clust5" class="cluster"><title>cluster_#17_#0</title>
<polygon fill="white" stroke="white" points="135.5,-292 135.5,-344 287.5,-344 287.5,-292 135.5,-292"/>
</g>
<g id="clust6" class="cluster"><title>cluster_#17_#1</title>
<polygon fill="white" stroke="white" points="121.5,-220 121.5,-272 301.5,-272 301.5,-220 121.5,-220"/>
</g>
<g id="clust7" class="cluster"><title>cluster_#17_#2</title>
<polygon fill="white" stroke="white" points="133.5,-148 133.5,-200 289.5,-200 289.5,-148 133.5,-148"/>
</g>
<g id="clust8" class="cluster"><title>cluster_#17_#14</title>
<polygon fill="cornflowerblue" stroke="cornflowerblue" points="325.5,-140 325.5,-360 533.5,-360 533.5,-140 325.5,-140"/>
</g>
<g id="clust9" class="cluster"><title>cluster_#17_#13</title>
<polygon fill="cornflowerblue" stroke="cornflowerblue" points="340.5,-212 340.5,-352 518.5,-352 518.5,-212 340.5,-212"/>
</g>
<g id="clust10" class="cluster"><title>cluster_#17_#3</title>
<polygon fill="white" stroke="white" points="348.5,-292 348.5,-344 510.5,-344 510.5,-292 348.5,-292"/>
</g>
<g id="clust11" class="cluster"><title>cluster_#17_#4</title>
<polygon fill="white" stroke="white" points="351.5,-220 351.5,-272 507.5,-272 507.5,-220 351.5,-220"/>
</g>
<g id="clust12" class="cluster"><title>cluster_#17_#5</title>
<polygon fill="white" stroke="white" points="333.5,-148 333.5,-200 525.5,-200 525.5,-148 333.5,-148"/>
</g>
<g id="clust13" class="cluster"><title>cluster_#17_#16</title>
<polygon fill="pink" stroke="pink" points="130.5,-56 130.5,-124 518.5,-124 518.5,-56 130.5,-56"/>
</g>
<g id="clust14" class="cluster"><title>cluster_#17_#6</title>
<polygon fill="white" stroke="white" points="138.5,-64 138.5,-116 340.5,-116 340.5,-64 138.5,-64"/>
</g>
<g id="clust15" class="cluster"><title>cluster_#17_#7</title>
<polygon fill="white" stroke="white" points="348.5,-64 348.5,-116 510.5,-116 510.5,-64 348.5,-64"/>
</g>
<!-- #17_in_#0_0_0_A -->
<g id="node1" class="node"><title>#17_in_#0_0_0_A</title>
<polygon fill="none" stroke="black" points="147,-420 0,-420 0,-384 147,-384 147,-420"/>
<text text-anchor="middle" x="73.5" y="-398.3" font-family="Times,serif" font-size="14.00">#17_in_#0_0_0_A</text>
</g>
<!-- #17_#0_0_f -->
<g id="node4" class="node"><title>#17_#0_0_f</title>
<ellipse fill="none" stroke="black" cx="211.5" cy="-318" rx="67.6881" ry="18"/>
<text text-anchor="middle" x="211.5" y="-314.3" font-family="Times,serif" font-size="14.00">#17_#0_0_f</text>
</g>
<!-- #17_in_#0_0_0_A&#45;&gt;#17_#0_0_f -->
<g id="edge1" class="edge"><title>#17_in_#0_0_0_A&#45;&gt;#17_#0_0_f</title>
<path fill="none" stroke="black" d="M102.429,-383.81C123.919,-371.041 153.346,-353.555 176.218,-339.965"/>
<polygon fill="black" stroke="black" points="178.137,-342.896 184.946,-334.779 174.561,-336.878 178.137,-342.896"/>
</g>
<!-- #17_in_#0_0_1_B -->
<g id="node2" class="node"><title>#17_in_#0_0_1_B</title>
<polygon fill="none" stroke="black" points="312,-420 165,-420 165,-384 312,-384 312,-420"/>
<text text-anchor="middle" x="238.5" y="-398.3" font-family="Times,serif" font-size="14.00">#17_in_#0_0_1_B</text>
</g>
<!-- #17_in_#0_0_1_B&#45;&gt;#17_#0_0_f -->
<g id="edge2" class="edge"><title>#17_in_#0_0_1_B&#45;&gt;#17_#0_0_f</title>
<path fill="none" stroke="black" d="M232.774,-383.61C229.17,-372.665 224.445,-358.315 220.364,-345.919"/>
<polygon fill="black" stroke="black" points="223.577,-344.488 217.125,-336.084 216.928,-346.677 223.577,-344.488"/>
</g>
<!-- #17_in_#3_0_0_A -->
<g id="node3" class="node"><title>#17_in_#3_0_0_A</title>
<polygon fill="none" stroke="black" points="503,-420 356,-420 356,-384 503,-384 503,-420"/>
<text text-anchor="middle" x="429.5" y="-398.3" font-family="Times,serif" font-size="14.00">#17_in_#3_0_0_A</text>
</g>
<!-- #17_#3_0_id -->
<g id="node7" class="node"><title>#17_#3_0_id</title>
<ellipse fill="none" stroke="black" cx="429.5" cy="-318" rx="73.387" ry="18"/>
<text text-anchor="middle" x="429.5" y="-314.3" font-family="Times,serif" font-size="14.00">#17_#3_0_id</text>
</g>
<!-- #17_in_#3_0_0_A&#45;&gt;#17_#3_0_id -->
<g id="edge3" class="edge"><title>#17_in_#3_0_0_A&#45;&gt;#17_#3_0_id</title>
<path fill="none" stroke="black" d="M429.5,-383.61C429.5,-372.774 429.5,-358.601 429.5,-346.291"/>
<polygon fill="black" stroke="black" points="433,-346.084 429.5,-336.084 426,-346.084 433,-346.084"/>
</g>
<!-- #17_#1_0_dup -->
<g id="node5" class="node"><title>#17_#1_0_dup</title>
<ellipse fill="none" stroke="black" cx="211.5" cy="-246" rx="81.7856" ry="18"/>
<text text-anchor="middle" x="211.5" y="-242.3" font-family="Times,serif" font-size="14.00">#17_#1_0_dup</text>
</g>
<!-- #17_#0_0_f&#45;&gt;#17_#1_0_dup -->
<g id="edge6" class="edge"><title>#17_#0_0_f&#45;&gt;#17_#1_0_dup</title>
<path fill="none" stroke="black" d="M211.5,-299.697C211.5,-291.983 211.5,-282.712 211.5,-274.112"/>
<polygon fill="black" stroke="black" points="215,-274.104 211.5,-264.104 208,-274.104 215,-274.104"/>
</g>
<!-- #17_#2_0_g -->
<g id="node6" class="node"><title>#17_#2_0_g</title>
<ellipse fill="none" stroke="black" cx="211.5" cy="-174" rx="70.3881" ry="18"/>
<text text-anchor="middle" x="211.5" y="-170.3" font-family="Times,serif" font-size="14.00">#17_#2_0_g</text>
</g>
<!-- #17_#1_0_dup&#45;&gt;#17_#2_0_g -->
<g id="edge7" class="edge"><title>#17_#1_0_dup&#45;&gt;#17_#2_0_g</title>
<path fill="none" stroke="black" d="M205.584,-227.697C204.789,-219.983 204.562,-210.712 204.905,-202.112"/>
<polygon fill="black" stroke="black" points="208.398,-202.324 205.605,-192.104 201.415,-201.836 208.398,-202.324"/>
</g>
<!-- #17_#1_0_dup&#45;&gt;#17_#2_0_g -->
<g id="edge8" class="edge"><title>#17_#1_0_dup&#45;&gt;#17_#2_0_g</title>
<path fill="none" stroke="black" d="M217.416,-227.697C218.211,-219.983 218.438,-210.712 218.095,-202.112"/>
<polygon fill="black" stroke="black" points="221.585,-201.836 217.395,-192.104 214.602,-202.324 221.585,-201.836"/>
</g>
<!-- #17_#6_0_codup -->
<g id="node10" class="node"><title>#17_#6_0_codup</title>
<ellipse fill="none" stroke="black" cx="239.5" cy="-90" rx="92.8835" ry="18"/>
<text text-anchor="middle" x="239.5" y="-86.3" font-family="Times,serif" font-size="14.00">#17_#6_0_codup</text>
</g>
<!-- #17_#2_0_g&#45;&gt;#17_#6_0_codup -->
<g id="edge12" class="edge"><title>#17_#2_0_g&#45;&gt;#17_#6_0_codup</title>
<path fill="none" stroke="black" d="M217.302,-156.01C221.093,-144.905 226.124,-130.172 230.438,-117.54"/>
<polygon fill="black" stroke="black" points="233.787,-118.563 233.706,-107.969 227.162,-116.301 233.787,-118.563"/>
</g>
<!-- #17_#4_0_h -->
<g id="node8" class="node"><title>#17_#4_0_h</title>
<ellipse fill="none" stroke="black" cx="429.5" cy="-246" rx="70.3881" ry="18"/>
<text text-anchor="middle" x="429.5" y="-242.3" font-family="Times,serif" font-size="14.00">#17_#4_0_h</text>
</g>
<!-- #17_#3_0_id&#45;&gt;#17_#4_0_h -->
<g id="edge9" class="edge"><title>#17_#3_0_id&#45;&gt;#17_#4_0_h</title>
<path fill="none" stroke="black" d="M429.5,-299.697C429.5,-291.983 429.5,-282.712 429.5,-274.112"/>
<polygon fill="black" stroke="black" points="433,-274.104 429.5,-264.104 426,-274.104 433,-274.104"/>
</g>
<!-- #17_#5_0_swap -->
<g id="node9" class="node"><title>#17_#5_0_swap</title>
<ellipse fill="none" stroke="black" cx="429.5" cy="-174" rx="88.2844" ry="18"/>
<text text-anchor="middle" x="429.5" y="-170.3" font-family="Times,serif" font-size="14.00">#17_#5_0_swap</text>
</g>
<!-- #17_#4_0_h&#45;&gt;#17_#5_0_swap -->
<g id="edge10" class="edge"><title>#17_#4_0_h&#45;&gt;#17_#5_0_swap</title>
<path fill="none" stroke="black" d="M423.622,-228.055C422.804,-220.346 422.561,-211.027 422.895,-202.364"/>
<polygon fill="black" stroke="black" points="426.394,-202.491 423.587,-192.275 419.411,-202.012 426.394,-202.491"/>
</g>
<!-- #17_#4_0_h&#45;&gt;#17_#5_0_swap -->
<g id="edge11" class="edge"><title>#17_#4_0_h&#45;&gt;#17_#5_0_swap</title>
<path fill="none" stroke="black" d="M435.378,-228.055C436.196,-220.346 436.439,-211.027 436.105,-202.364"/>
<polygon fill="black" stroke="black" points="439.589,-202.012 435.413,-192.275 432.606,-202.491 439.589,-202.012"/>
</g>
<!-- #17_#5_0_swap&#45;&gt;#17_#6_0_codup -->
<g id="edge13" class="edge"><title>#17_#5_0_swap&#45;&gt;#17_#6_0_codup</title>
<path fill="none" stroke="black" d="M393.315,-157.383C362.642,-144.146 318.484,-125.088 285.342,-110.784"/>
<polygon fill="black" stroke="black" points="286.441,-107.447 275.873,-106.698 283.668,-113.874 286.441,-107.447"/>
</g>
<!-- #17_#7_0_id -->
<g id="node11" class="node"><title>#17_#7_0_id</title>
<ellipse fill="none" stroke="black" cx="429.5" cy="-90" rx="73.387" ry="18"/>
<text text-anchor="middle" x="429.5" y="-86.3" font-family="Times,serif" font-size="14.00">#17_#7_0_id</text>
</g>
<!-- #17_#5_0_swap&#45;&gt;#17_#7_0_id -->
<g id="edge14" class="edge"><title>#17_#5_0_swap&#45;&gt;#17_#7_0_id</title>
<path fill="none" stroke="black" d="M429.5,-155.61C429.5,-144.774 429.5,-130.601 429.5,-118.291"/>
<polygon fill="black" stroke="black" points="433,-118.084 429.5,-108.084 426,-118.084 433,-118.084"/>
</g>
<!-- #17_out_#6_0_0_D -->
<g id="node12" class="node"><title>#17_out_#6_0_0_D</title>
<polygon fill="none" stroke="black" points="318.5,-36 160.5,-36 160.5,-0 318.5,-0 318.5,-36"/>
<text text-anchor="middle" x="239.5" y="-14.3" font-family="Times,serif" font-size="14.00">#17_out_#6_0_0_D</text>
</g>
<!-- #17_#6_0_codup&#45;&gt;#17_out_#6_0_0_D -->
<g id="edge4" class="edge"><title>#17_#6_0_codup&#45;&gt;#17_out_#6_0_0_D</title>
<path fill="none" stroke="black" d="M239.5,-71.6966C239.5,-63.9827 239.5,-54.7125 239.5,-46.1124"/>
<polygon fill="black" stroke="black" points="243,-46.1043 239.5,-36.1043 236,-46.1044 243,-46.1043"/>
</g>
<!-- #17_out_#7_0_0_C -->
<g id="node13" class="node"><title>#17_out_#7_0_0_C</title>
<polygon fill="none" stroke="black" points="508.5,-36 350.5,-36 350.5,-0 508.5,-0 508.5,-36"/>
<text text-anchor="middle" x="429.5" y="-14.3" font-family="Times,serif" font-size="14.00">#17_out_#7_0_0_C</text>
</g>
<!-- #17_#7_0_id&#45;&gt;#17_out_#7_0_0_C -->
<g id="edge5" class="edge"><title>#17_#7_0_id&#45;&gt;#17_out_#7_0_0_C</title>
<path fill="none" stroke="black" d="M429.5,-71.6966C429.5,-63.9827 429.5,-54.7125 429.5,-46.1124"/>
<polygon fill="black" stroke="black" points="433,-46.1043 429.5,-36.1043 426,-46.1044 433,-46.1043"/>
</g>
</g>
</svg>
