<?xml version="1.0" encoding="UTF-8" standalone="no"?>
<!DOCTYPE svg PUBLIC "-//W3C//DTD SVG 1.1//EN"
 "http://www.w3.org/Graphics/SVG/1.1/DTD/svg11.dtd">
<!-- Generated by graphviz version 2.38.0 (20140413.2041)
 -->
<!-- Title: G Pages: 1 -->
<svg width="354pt" height="360pt"
 viewBox="0.00 0.00 353.60 359.77" xmlns="http://www.w3.org/2000/svg" xmlns:xlink="http://www.w3.org/1999/xlink">
<g id="graph0" class="graph" transform="scale(1 1) rotate(0) translate(4 355.77)">
<title>G</title>
<polygon fill="white" stroke="none" points="-4,4 -4,-355.77 349.598,-355.77 349.598,4 -4,4"/>
<g id="clust1" class="cluster"><title>cluster_#20_#20</title>
<polygon fill="white" stroke="white" points="8,-60.3938 8,-296.394 248,-296.394 248,-60.3938 8,-60.3938"/>
</g>
<g id="clust2" class="cluster"><title>cluster_#20_#19</title>
<polygon fill="cornflowerblue" stroke="cornflowerblue" points="16,-68.3938 16,-288.394 240,-288.394 240,-68.3938 16,-68.3938"/>
</g>
<g id="clust3" class="cluster"><title>cluster_#20_#18</title>
<polygon fill="cornflowerblue" stroke="cornflowerblue" points="24,-140.394 24,-280.394 232,-280.394 232,-140.394 24,-140.394"/>
</g>
<g id="clust4" class="cluster"><title>cluster_#20_#8</title>
<polygon fill="white" stroke="white" points="32,-220.394 32,-272.394 224,-272.394 224,-220.394 32,-220.394"/>
</g>
<g id="clust5" class="cluster"><title>cluster_#20_#9</title>
<polygon fill="white" stroke="white" points="52,-148.394 52,-200.394 204,-200.394 204,-148.394 52,-148.394"/>
</g>
<g id="clust6" class="cluster"><title>cluster_#20_#10</title>
<polygon fill="white" stroke="white" points="49,-76.3938 49,-128.394 223,-128.394 223,-76.3938 49,-76.3938"/>
</g>
<!-- #20_in_#8_0_0_C -->
<g id="node1" class="node"><title>#20_in_#8_0_0_C</title>
<polygon fill="none" stroke="black" points="340,-340.394 192,-340.394 192,-304.394 340,-304.394 340,-340.394"/>
<text text-anchor="middle" x="266" y="-318.694" font-family="Times,serif" font-size="14.00">#20_in_#8_0_0_C</text>
</g>
<!-- #20_#8_0_swap -->
<g id="node3" class="node"><title>#20_#8_0_swap</title>
<ellipse fill="none" stroke="black" cx="128" cy="-246.394" rx="88.2844" ry="18"/>
<text text-anchor="middle" x="128" y="-242.694" font-family="Times,serif" font-size="14.00">#20_#8_0_swap</text>
</g>
<!-- #20_in_#8_0_0_C&#45;&gt;#20_#8_0_swap -->
<g id="edge1" class="edge"><title>#20_in_#8_0_0_C&#45;&gt;#20_#8_0_swap</title>
<path fill="none" stroke="black" d="M233.993,-304.231C214.018,-293.519 188.17,-279.659 167.001,-268.307"/>
<polygon fill="black" stroke="black" points="168.411,-265.092 157.944,-263.451 165.103,-271.261 168.411,-265.092"/>
</g>
<!-- #20_out_#10_0_0_A -->
<g id="node6" class="node"><title>#20_out_#10_0_0_A</title>
<polygon fill="none" stroke="black" points="284,-48.3938 118,-48.3938 118,-12.3938 284,-12.3938 284,-48.3938"/>
<text text-anchor="middle" x="201" y="-26.6938" font-family="Times,serif" font-size="14.00">#20_out_#10_0_0_A</text>
</g>
<!-- #20_in_#8_0_0_C&#45;&gt;#20_out_#10_0_0_A -->
<g id="edge7" class="edge"><title>#20_in_#8_0_0_C:n&#45;&gt;#20_out_#10_0_0_A:s</title>
<path fill="none" stroke="black" d="M272.78,-348.806C289.27,-355.262 330.796,-349.723 340,-340.394 351.237,-329.004 341.514,-320.322 340,-304.394 327.499,-172.844 385.35,-97.1868 284,-12.3938 269.853,-0.557627 201,7.05193 201,-11.3938"/>
<polygon fill="black" stroke="black" points="275.332,-346.41 266,-341.394 270.167,-351.135 275.332,-346.41"/>
</g>
<!-- #20_in_#8_0_1_D -->
<g id="node2" class="node"><title>#20_in_#8_0_1_D</title>
<polygon fill="none" stroke="black" points="174,-340.394 26,-340.394 26,-304.394 174,-304.394 174,-340.394"/>
<text text-anchor="middle" x="100" y="-318.694" font-family="Times,serif" font-size="14.00">#20_in_#8_0_1_D</text>
</g>
<!-- #20_in_#8_0_1_D&#45;&gt;#20_#8_0_swap -->
<g id="edge2" class="edge"><title>#20_in_#8_0_1_D&#45;&gt;#20_#8_0_swap</title>
<path fill="none" stroke="black" d="M106.494,-304.231C109.887,-295.265 114.114,-284.092 117.921,-274.031"/>
<polygon fill="black" stroke="black" points="121.276,-275.055 121.541,-264.464 114.729,-272.578 121.276,-275.055"/>
</g>
<!-- #20_#9_0_i -->
<g id="node4" class="node"><title>#20_#9_0_i</title>
<ellipse fill="none" stroke="black" cx="128" cy="-174.394" rx="67.6881" ry="18"/>
<text text-anchor="middle" x="128" y="-170.694" font-family="Times,serif" font-size="14.00">#20_#9_0_i</text>
</g>
<!-- #20_#8_0_swap&#45;&gt;#20_#9_0_i -->
<g id="edge4" class="edge"><title>#20_#8_0_swap&#45;&gt;#20_#9_0_i</title>
<path fill="none" stroke="black" d="M122.084,-228.09C121.289,-220.377 121.062,-211.106 121.405,-202.506"/>
<polygon fill="black" stroke="black" points="124.898,-202.718 122.105,-192.498 117.915,-202.229 124.898,-202.718"/>
</g>
<!-- #20_#8_0_swap&#45;&gt;#20_#9_0_i -->
<g id="edge5" class="edge"><title>#20_#8_0_swap&#45;&gt;#20_#9_0_i</title>
<path fill="none" stroke="black" d="M133.916,-228.09C134.711,-220.377 134.938,-211.106 134.595,-202.506"/>
<polygon fill="black" stroke="black" points="138.085,-202.229 133.895,-192.498 131.102,-202.718 138.085,-202.229"/>
</g>
<!-- #20_#10_0_id -->
<g id="node5" class="node"><title>#20_#10_0_id</title>
<ellipse fill="none" stroke="black" cx="136" cy="-102.394" rx="79.0865" ry="18"/>
<text text-anchor="middle" x="136" y="-98.6938" font-family="Times,serif" font-size="14.00">#20_#10_0_id</text>
</g>
<!-- #20_#9_0_i&#45;&gt;#20_#10_0_id -->
<g id="edge6" class="edge"><title>#20_#9_0_i&#45;&gt;#20_#10_0_id</title>
<path fill="none" stroke="black" d="M129.978,-156.09C130.859,-148.377 131.919,-139.106 132.901,-130.506"/>
<polygon fill="black" stroke="black" points="136.387,-130.831 134.045,-120.498 129.432,-130.036 136.387,-130.831"/>
</g>
<!-- #20_#10_0_id&#45;&gt;#20_out_#10_0_0_A -->
<g id="edge3" class="edge"><title>#20_#10_0_id&#45;&gt;#20_out_#10_0_0_A</title>
<path fill="none" stroke="black" d="M151.735,-84.4488C159.601,-75.977 169.273,-65.5618 177.957,-56.2093"/>
<polygon fill="black" stroke="black" points="180.719,-58.3787 184.959,-48.6691 175.589,-53.6155 180.719,-58.3787"/>
</g>
</g>
</svg>
