<?xml version="1.0" encoding="UTF-8" standalone="no"?>
<!DOCTYPE svg PUBLIC "-//W3C//DTD SVG 1.1//EN"
 "http://www.w3.org/Graphics/SVG/1.1/DTD/svg11.dtd">
<!-- Generated by graphviz version 2.38.0 (20140413.2041)
 -->
<!-- Title: G Pages: 1 -->
<svg width="380pt" height="3185pt"
 viewBox="0.00 0.00 380.15 3185.00" xmlns="http://www.w3.org/2000/svg" xmlns:xlink="http://www.w3.org/1999/xlink">
<g id="graph0" class="graph" transform="scale(1 1) rotate(0) translate(4 3181)">
<title>G</title>
<polygon fill="white" stroke="none" points="-4,4 -4,-3181 376.146,-3181 376.146,4 -4,4"/>
<g id="clust1" class="cluster"><title>cluster_#9</title>
<polygon fill="lightgrey" stroke="lightgrey" points="156.146,-8 156.146,-605 336.146,-605 336.146,-8 156.146,-8"/>
<text text-anchor="middle" x="246.146" y="-589.8" font-family="Times,serif" font-size="14.00">cluster_#9</text>
</g>
<g id="clust2" class="cluster"><title>cluster_#7</title>
<polygon fill="lightgrey" stroke="lightgrey" points="192.146,-697 192.146,-1207 352.146,-1207 352.146,-697 192.146,-697"/>
<text text-anchor="middle" x="272.146" y="-1191.8" font-family="Times,serif" font-size="14.00">cluster_#7</text>
</g>
<g id="clust3" class="cluster"><title>cluster_#6</title>
<polygon fill="lightgrey" stroke="lightgrey" points="159.146,-1299 159.146,-1809 319.146,-1809 319.146,-1299 159.146,-1299"/>
<text text-anchor="middle" x="239.146" y="-1793.8" font-family="Times,serif" font-size="14.00">cluster_#6</text>
</g>
<g id="clust4" class="cluster"><title>cluster_#4</title>
<polygon fill="lightgrey" stroke="lightgrey" points="185.146,-1901 185.146,-2324 327.146,-2324 327.146,-1901 185.146,-1901"/>
<text text-anchor="middle" x="256.146" y="-2308.8" font-family="Times,serif" font-size="14.00">cluster_#4</text>
</g>
<g id="clust5" class="cluster"><title>cluster_#3</title>
<polygon fill="lightgrey" stroke="lightgrey" points="65.1459,-2416 65.1459,-2773 207.146,-2773 207.146,-2416 65.1459,-2416"/>
<text text-anchor="middle" x="136.146" y="-2757.8" font-family="Times,serif" font-size="14.00">cluster_#3</text>
</g>
<g id="clust6" class="cluster"><title>cluster_#2</title>
<polygon fill="lightgrey" stroke="lightgrey" points="9.14591,-2865 9.14591,-3114 104.146,-3114 104.146,-2865 9.14591,-2865"/>
<text text-anchor="middle" x="56.6459" y="-3098.8" font-family="Times,serif" font-size="14.00">cluster_#2</text>
</g>
<g id="clust7" class="cluster"><title>cluster_#1</title>
<polygon fill="lightgrey" stroke="lightgrey" points="117.146,-2865 117.146,-3114 259.146,-3114 259.146,-2865 117.146,-2865"/>
<text text-anchor="middle" x="188.146" y="-3098.8" font-family="Times,serif" font-size="14.00">cluster_#1</text>
</g>
<g id="clust8" class="cluster"><title>cluster_#0</title>
<polygon fill="lightgrey" stroke="lightgrey" points="222.146,-2416 222.146,-2665 364.146,-2665 364.146,-2416 222.146,-2416"/>
<text text-anchor="middle" x="293.146" y="-2649.8" font-family="Times,serif" font-size="14.00">cluster_#0</text>
</g>
<!-- #9_in_#0_T -->
<g id="node1" class="node"><title>#9_in_#0_T</title>
<polygon fill="white" stroke="white" points="298.146,-574 244.146,-574 244.146,-538 298.146,-538 298.146,-574"/>
<text text-anchor="middle" x="271.146" y="-552.3" font-family="Times,serif" font-size="14.00">#0 T</text>
</g>
<!-- #9_#0 -->
<g id="node2" class="node"><title>#9_#0</title>
<ellipse fill="white" stroke="white" cx="271.146" cy="-469" rx="55.4913" ry="18"/>
<text text-anchor="middle" x="271.146" y="-465.3" font-family="Times,serif" font-size="14.00">#0 sigma</text>
</g>
<!-- #9_in_#0_T&#45;&gt;#9_#0 -->
<g id="edge1" class="edge"><title>#9_in_#0_T&#45;&gt;#9_#0</title>
<path fill="none" stroke="black" d="M271.146,-537.799C271.146,-526.163 271.146,-510.548 271.146,-497.237"/>
<polygon fill="black" stroke="black" points="274.646,-497.175 271.146,-487.175 267.646,-497.175 274.646,-497.175"/>
<text text-anchor="middle" x="288.646" y="-508.8" font-family="Times,serif" font-size="14.00">#0 T</text>
</g>
<!-- #9_#1 -->
<g id="node3" class="node"><title>#9_#1</title>
<ellipse fill="white" stroke="white" cx="226.146" cy="-382" rx="61.99" ry="18"/>
<text text-anchor="middle" x="226.146" y="-378.3" font-family="Times,serif" font-size="14.00">#1 gamma</text>
</g>
<!-- #9_#0&#45;&gt;#9_#1 -->
<g id="edge4" class="edge"><title>#9_#0&#45;&gt;#9_#1</title>
<path fill="none" stroke="black" d="M248.389,-452.455C242.129,-447.035 236.007,-440.426 232.146,-433 228.542,-426.067 226.723,-417.881 225.882,-410.161"/>
<polygon fill="black" stroke="black" points="229.37,-409.853 225.266,-400.085 222.383,-410.28 229.37,-409.853"/>
<text text-anchor="middle" x="237.646" y="-421.8" font-family="Times,serif" font-size="14.00">A</text>
</g>
<!-- #9_#0&#45;&gt;#9_#1 -->
<g id="edge5" class="edge"><title>#9_#0&#45;&gt;#9_#1</title>
<path fill="none" stroke="black" d="M262.255,-451.207C255.887,-439.178 247.189,-422.748 239.925,-409.028"/>
<polygon fill="black" stroke="black" points="242.944,-407.25 235.172,-400.049 236.758,-410.525 242.944,-407.25"/>
<text text-anchor="middle" x="257.646" y="-421.8" font-family="Times,serif" font-size="14.00">B</text>
</g>
<!-- #9_#5 -->
<g id="node5" class="node"><title>#9_#5</title>
<ellipse fill="white" stroke="white" cx="231.146" cy="-208" rx="65.7887" ry="18"/>
<text text-anchor="middle" x="231.146" y="-204.3" font-family="Times,serif" font-size="14.00">#5 junction</text>
</g>
<!-- #9_#0&#45;&gt;#9_#5 -->
<g id="edge6" class="edge"><title>#9_#0&#45;&gt;#9_#5</title>
<path fill="none" stroke="black" d="M279.566,-451.176C285.81,-437.712 293.795,-418.146 297.146,-400 300.051,-384.266 299.627,-379.806 297.146,-364 290.848,-323.871 285.355,-314.246 269.146,-277 262.867,-262.573 254.447,-247.214 247.128,-234.751"/>
<polygon fill="black" stroke="black" points="249.939,-232.631 241.8,-225.847 243.932,-236.226 249.939,-232.631"/>
<text text-anchor="middle" x="299.646" y="-334.8" font-family="Times,serif" font-size="14.00">B</text>
</g>
<!-- #9_#8 -->
<g id="node6" class="node"><title>#9_#8</title>
<ellipse fill="white" stroke="white" cx="231.146" cy="-121" rx="65.7887" ry="18"/>
<text text-anchor="middle" x="231.146" y="-117.3" font-family="Times,serif" font-size="14.00">#8 junction</text>
</g>
<!-- #9_#0&#45;&gt;#9_#8 -->
<g id="edge8" class="edge"><title>#9_#0&#45;&gt;#9_#8</title>
<path fill="none" stroke="black" d="M284.319,-451.241C288.227,-445.673 292.236,-439.285 295.146,-433 301.534,-419.205 301.435,-414.959 304.146,-400 320.791,-308.159 336.815,-278.155 306.146,-190 299.421,-170.671 283.298,-154.858 267.718,-143.361"/>
<polygon fill="black" stroke="black" points="269.388,-140.259 259.181,-137.422 265.391,-146.006 269.388,-140.259"/>
<text text-anchor="middle" x="328.646" y="-291.3" font-family="Times,serif" font-size="14.00">A</text>
</g>
<!-- #9_#2 -->
<g id="node4" class="node"><title>#9_#2</title>
<ellipse fill="white" stroke="white" cx="229.146" cy="-295" rx="30.5947" ry="18"/>
<text text-anchor="middle" x="229.146" y="-291.3" font-family="Times,serif" font-size="14.00">#2 f</text>
</g>
<!-- #9_#1&#45;&gt;#9_#2 -->
<g id="edge3" class="edge"><title>#9_#1&#45;&gt;#9_#2</title>
<path fill="none" stroke="black" d="M226.753,-363.799C227.164,-352.163 227.715,-336.548 228.185,-323.237"/>
<polygon fill="black" stroke="black" points="231.685,-323.293 228.54,-313.175 224.689,-323.046 231.685,-323.293"/>
<text text-anchor="middle" x="245.146" y="-334.8" font-family="Times,serif" font-size="14.00">A^B</text>
</g>
<!-- #9_#2&#45;&gt;#9_#5 -->
<g id="edge7" class="edge"><title>#9_#2&#45;&gt;#9_#5</title>
<path fill="none" stroke="black" d="M229.551,-276.799C229.824,-265.163 230.192,-249.548 230.505,-236.237"/>
<polygon fill="black" stroke="black" points="234.005,-236.255 230.742,-226.175 227.007,-236.09 234.005,-236.255"/>
<text text-anchor="middle" x="237.146" y="-247.8" font-family="Times,serif" font-size="14.00">C</text>
</g>
<!-- #9_#5&#45;&gt;#9_#8 -->
<g id="edge9" class="edge"><title>#9_#5&#45;&gt;#9_#8</title>
<path fill="none" stroke="black" d="M231.146,-189.799C231.146,-178.163 231.146,-162.548 231.146,-149.237"/>
<polygon fill="black" stroke="black" points="234.646,-149.175 231.146,-139.175 227.646,-149.175 234.646,-149.175"/>
<text text-anchor="middle" x="254.146" y="-160.8" font-family="Times,serif" font-size="14.00">B=&gt;C</text>
</g>
<!-- #9_out_#8_A=&gt;B=&gt;C -->
<g id="node7" class="node"><title>#9_out_#8_A=&gt;B=&gt;C</title>
<polygon fill="white" stroke="white" points="286.146,-52 164.146,-52 164.146,-16 286.146,-16 286.146,-52"/>
<text text-anchor="middle" x="225.146" y="-30.3" font-family="Times,serif" font-size="14.00">#8 A=&gt;B=&gt;C</text>
</g>
<!-- #9_#8&#45;&gt;#9_out_#8_A=&gt;B=&gt;C -->
<g id="edge2" class="edge"><title>#9_#8&#45;&gt;#9_out_#8_A=&gt;B=&gt;C</title>
<path fill="none" stroke="black" d="M229.932,-102.799C229.11,-91.1626 228.008,-75.5479 227.069,-62.2368"/>
<polygon fill="black" stroke="black" points="230.554,-61.9041 226.358,-52.1754 223.571,-62.3971 230.554,-61.9041"/>
<text text-anchor="middle" x="282.146" y="-73.8" font-family="Times,serif" font-size="14.00">#8 A=&gt;B=&gt;C</text>
</g>
<!-- #9_Lamb -->
<g id="node8" class="node"><title>#9_Lamb</title>
<ellipse fill="skyblue" stroke="skyblue" cx="271.146" cy="-650" rx="55.7903" ry="18"/>
<text text-anchor="middle" x="271.146" y="-646.3" font-family="Times,serif" font-size="14.00">#9_Lamb</text>
</g>
<!-- #9_Lamb&#45;&gt;#9_in_#0_T -->
<g id="edge10" class="edge"><title>#9_Lamb&#45;&gt;#9_in_#0_T</title>
<path fill="none" stroke="black" d="M271.146,-631.696C271.146,-626.727 271.146,-621.016 271.146,-615.01"/>
<polygon fill="black" stroke="black" points="274.646,-614.706 271.146,-604.706 267.646,-614.706 274.646,-614.706"/>
</g>
<!-- #7_in_#0_A -->
<g id="node9" class="node"><title>#7_in_#0_A</title>
<polygon fill="white" stroke="white" points="335.146,-1176 281.146,-1176 281.146,-1140 335.146,-1140 335.146,-1176"/>
<text text-anchor="middle" x="308.146" y="-1154.3" font-family="Times,serif" font-size="14.00">#0 A</text>
</g>
<!-- #7_#0 -->
<g id="node11" class="node"><title>#7_#0</title>
<ellipse fill="white" stroke="white" cx="289.146" cy="-1071" rx="55.4913" ry="18"/>
<text text-anchor="middle" x="289.146" y="-1067.3" font-family="Times,serif" font-size="14.00">#0 sigma</text>
</g>
<!-- #7_in_#0_A&#45;&gt;#7_#0 -->
<g id="edge11" class="edge"><title>#7_in_#0_A&#45;&gt;#7_#0</title>
<path fill="none" stroke="black" d="M304.301,-1139.8C301.7,-1128.16 298.21,-1112.55 295.234,-1099.24"/>
<polygon fill="black" stroke="black" points="298.582,-1098.17 292.985,-1089.18 291.751,-1099.7 298.582,-1098.17"/>
<text text-anchor="middle" x="318.646" y="-1110.8" font-family="Times,serif" font-size="14.00">#0 A</text>
</g>
<!-- #7_in_#0_T -->
<g id="node10" class="node"><title>#7_in_#0_T</title>
<polygon fill="white" stroke="white" points="263.146,-1176 209.146,-1176 209.146,-1140 263.146,-1140 263.146,-1176"/>
<text text-anchor="middle" x="236.146" y="-1154.3" font-family="Times,serif" font-size="14.00">#0 T</text>
</g>
<!-- #7_in_#0_T&#45;&gt;#7_#0 -->
<g id="edge12" class="edge"><title>#7_in_#0_T&#45;&gt;#7_#0</title>
<path fill="none" stroke="black" d="M242.697,-1139.72C246.797,-1129.8 252.547,-1117.3 259.146,-1107 261.478,-1103.36 264.16,-1099.7 266.943,-1096.19"/>
<polygon fill="black" stroke="black" points="269.77,-1098.26 273.496,-1088.35 264.398,-1093.78 269.77,-1098.26"/>
<text text-anchor="middle" x="276.646" y="-1110.8" font-family="Times,serif" font-size="14.00">#0 T</text>
</g>
<!-- #7_#1 -->
<g id="node12" class="node"><title>#7_#1</title>
<ellipse fill="white" stroke="white" cx="262.146" cy="-984" rx="61.99" ry="18"/>
<text text-anchor="middle" x="262.146" y="-980.3" font-family="Times,serif" font-size="14.00">#1 gamma</text>
</g>
<!-- #7_#0&#45;&gt;#7_#1 -->
<g id="edge15" class="edge"><title>#7_#0&#45;&gt;#7_#1</title>
<path fill="none" stroke="black" d="M271.721,-1053.72C267.045,-1048.27 262.608,-1041.83 260.146,-1035 257.583,-1027.89 256.993,-1019.84 257.331,-1012.3"/>
<polygon fill="black" stroke="black" points="260.834,-1012.45 258.318,-1002.15 253.867,-1011.77 260.834,-1012.45"/>
<text text-anchor="middle" x="265.646" y="-1023.8" font-family="Times,serif" font-size="14.00">A</text>
</g>
<!-- #7_#0&#45;&gt;#7_#1 -->
<g id="edge16" class="edge"><title>#7_#0&#45;&gt;#7_#1</title>
<path fill="none" stroke="black" d="M283.682,-1052.8C279.949,-1041.05 274.927,-1025.24 270.672,-1011.84"/>
<polygon fill="black" stroke="black" points="273.965,-1010.65 267.602,-1002.18 267.293,-1012.77 273.965,-1010.65"/>
<text text-anchor="middle" x="283.646" y="-1023.8" font-family="Times,serif" font-size="14.00">B</text>
</g>
<!-- #7_#5 -->
<g id="node14" class="node"><title>#7_#5</title>
<ellipse fill="white" stroke="white" cx="271.146" cy="-810" rx="65.7887" ry="18"/>
<text text-anchor="middle" x="271.146" y="-806.3" font-family="Times,serif" font-size="14.00">#5 junction</text>
</g>
<!-- #7_#0&#45;&gt;#7_#5 -->
<g id="edge17" class="edge"><title>#7_#0&#45;&gt;#7_#5</title>
<path fill="none" stroke="black" d="M303.749,-1053.49C314.206,-1040.51 327.411,-1021.42 333.146,-1002 337.677,-986.655 335.377,-981.844 333.146,-966 327.536,-926.162 323.407,-916.225 308.146,-879 302.215,-864.532 294.032,-849.17 286.87,-836.714"/>
<polygon fill="black" stroke="black" points="289.729,-834.67 281.647,-827.819 283.692,-838.214 289.729,-834.67"/>
<text text-anchor="middle" x="335.646" y="-936.8" font-family="Times,serif" font-size="14.00">B</text>
</g>
<!-- #7_#2 -->
<g id="node13" class="node"><title>#7_#2</title>
<ellipse fill="white" stroke="white" cx="268.146" cy="-897" rx="30.5947" ry="18"/>
<text text-anchor="middle" x="268.146" y="-893.3" font-family="Times,serif" font-size="14.00">#2 f</text>
</g>
<!-- #7_#1&#45;&gt;#7_#2 -->
<g id="edge14" class="edge"><title>#7_#1&#45;&gt;#7_#2</title>
<path fill="none" stroke="black" d="M263.36,-965.799C264.181,-954.163 265.284,-938.548 266.223,-925.237"/>
<polygon fill="black" stroke="black" points="269.721,-925.397 266.934,-915.175 262.738,-924.904 269.721,-925.397"/>
<text text-anchor="middle" x="283.146" y="-936.8" font-family="Times,serif" font-size="14.00">A^B</text>
</g>
<!-- #7_#2&#45;&gt;#7_#5 -->
<g id="edge18" class="edge"><title>#7_#2&#45;&gt;#7_#5</title>
<path fill="none" stroke="black" d="M268.753,-878.799C269.164,-867.163 269.715,-851.548 270.185,-838.237"/>
<polygon fill="black" stroke="black" points="273.685,-838.293 270.54,-828.175 266.689,-838.046 273.685,-838.293"/>
<text text-anchor="middle" x="276.146" y="-849.8" font-family="Times,serif" font-size="14.00">C</text>
</g>
<!-- #7_out_#5_B=&gt;C -->
<g id="node15" class="node"><title>#7_out_#5_B=&gt;C</title>
<polygon fill="white" stroke="white" points="315.146,-741 227.146,-741 227.146,-705 315.146,-705 315.146,-741"/>
<text text-anchor="middle" x="271.146" y="-719.3" font-family="Times,serif" font-size="14.00">#5 B=&gt;C</text>
</g>
<!-- #7_#5&#45;&gt;#7_out_#5_B=&gt;C -->
<g id="edge13" class="edge"><title>#7_#5&#45;&gt;#7_out_#5_B=&gt;C</title>
<path fill="none" stroke="black" d="M271.146,-791.799C271.146,-780.163 271.146,-764.548 271.146,-751.237"/>
<polygon fill="black" stroke="black" points="274.646,-751.175 271.146,-741.175 267.646,-751.175 274.646,-751.175"/>
<text text-anchor="middle" x="307.146" y="-762.8" font-family="Times,serif" font-size="14.00">#5 B=&gt;C</text>
</g>
<!-- #7_out_#5_B=&gt;C&#45;&gt;#9_Lamb -->
<g id="edge58" class="edge"><title>#7_out_#5_B=&gt;C&#45;&gt;#9_Lamb</title>
<path fill="none" stroke="black" d="M271.146,-697.278C271.146,-691.072 271.146,-684.382 271.146,-678.069"/>
<polygon fill="black" stroke="black" points="274.646,-678.029 271.146,-668.029 267.646,-678.029 274.646,-678.029"/>
</g>
<!-- #7_Up -->
<g id="node16" class="node"><title>#7_Up</title>
<ellipse fill="skyblue" stroke="skyblue" cx="236.146" cy="-1252" rx="42.4939" ry="18"/>
<text text-anchor="middle" x="236.146" y="-1248.3" font-family="Times,serif" font-size="14.00">#7_Up</text>
</g>
<!-- #7_Up&#45;&gt;#7_in_#0_T -->
<g id="edge19" class="edge"><title>#7_Up&#45;&gt;#7_in_#0_T</title>
<path fill="none" stroke="black" d="M236.146,-1233.7C236.146,-1228.73 236.146,-1223.02 236.146,-1217.01"/>
<polygon fill="black" stroke="black" points="239.646,-1216.71 236.146,-1206.71 232.646,-1216.71 239.646,-1216.71"/>
</g>
<!-- #6_in_#0_A -->
<g id="node17" class="node"><title>#6_in_#0_A</title>
<polygon fill="white" stroke="white" points="283.146,-1778 229.146,-1778 229.146,-1742 283.146,-1742 283.146,-1778"/>
<text text-anchor="middle" x="256.146" y="-1756.3" font-family="Times,serif" font-size="14.00">#0 A</text>
</g>
<!-- #6_#0 -->
<g id="node18" class="node"><title>#6_#0</title>
<ellipse fill="white" stroke="white" cx="256.146" cy="-1673" rx="55.4913" ry="18"/>
<text text-anchor="middle" x="256.146" y="-1669.3" font-family="Times,serif" font-size="14.00">#0 sigma</text>
</g>
<!-- #6_in_#0_A&#45;&gt;#6_#0 -->
<g id="edge20" class="edge"><title>#6_in_#0_A&#45;&gt;#6_#0</title>
<path fill="none" stroke="black" d="M256.146,-1741.8C256.146,-1730.16 256.146,-1714.55 256.146,-1701.24"/>
<polygon fill="black" stroke="black" points="259.646,-1701.18 256.146,-1691.18 252.646,-1701.18 259.646,-1701.18"/>
<text text-anchor="middle" x="274.646" y="-1712.8" font-family="Times,serif" font-size="14.00">#0 A</text>
</g>
<!-- #6_#1 -->
<g id="node19" class="node"><title>#6_#1</title>
<ellipse fill="white" stroke="white" cx="229.146" cy="-1586" rx="61.99" ry="18"/>
<text text-anchor="middle" x="229.146" y="-1582.3" font-family="Times,serif" font-size="14.00">#1 gamma</text>
</g>
<!-- #6_#0&#45;&gt;#6_#1 -->
<g id="edge23" class="edge"><title>#6_#0&#45;&gt;#6_#1</title>
<path fill="none" stroke="black" d="M238.13,-1655.81C233.293,-1650.37 228.7,-1643.91 226.146,-1637 223.521,-1629.9 223.027,-1621.86 223.518,-1614.32"/>
<polygon fill="black" stroke="black" points="227.02,-1614.52 224.749,-1604.17 220.071,-1613.68 227.02,-1614.52"/>
<text text-anchor="middle" x="231.646" y="-1625.8" font-family="Times,serif" font-size="14.00">A</text>
</g>
<!-- #6_#0&#45;&gt;#6_#1 -->
<g id="edge24" class="edge"><title>#6_#0&#45;&gt;#6_#1</title>
<path fill="none" stroke="black" d="M250.682,-1654.8C246.949,-1643.05 241.927,-1627.24 237.672,-1613.84"/>
<polygon fill="black" stroke="black" points="240.965,-1612.65 234.602,-1604.18 234.293,-1614.77 240.965,-1612.65"/>
<text text-anchor="middle" x="250.646" y="-1625.8" font-family="Times,serif" font-size="14.00">B</text>
</g>
<!-- #6_#5 -->
<g id="node21" class="node"><title>#6_#5</title>
<ellipse fill="white" stroke="white" cx="236.146" cy="-1412" rx="65.7887" ry="18"/>
<text text-anchor="middle" x="236.146" y="-1408.3" font-family="Times,serif" font-size="14.00">#5 junction</text>
</g>
<!-- #6_#0&#45;&gt;#6_#5 -->
<g id="edge25" class="edge"><title>#6_#0&#45;&gt;#6_#5</title>
<path fill="none" stroke="black" d="M270.749,-1655.49C281.206,-1642.51 294.411,-1623.42 300.146,-1604 304.677,-1588.66 302.544,-1583.82 300.146,-1568 294.077,-1527.97 288.898,-1518.3 273.146,-1481 267.062,-1466.6 258.866,-1451.24 251.734,-1438.77"/>
<polygon fill="black" stroke="black" points="254.601,-1436.74 246.541,-1429.86 248.554,-1440.26 254.601,-1436.74"/>
<text text-anchor="middle" x="302.646" y="-1538.8" font-family="Times,serif" font-size="14.00">B</text>
</g>
<!-- #6_#2 -->
<g id="node20" class="node"><title>#6_#2</title>
<ellipse fill="white" stroke="white" cx="233.146" cy="-1499" rx="30.5947" ry="18"/>
<text text-anchor="middle" x="233.146" y="-1495.3" font-family="Times,serif" font-size="14.00">#2 f</text>
</g>
<!-- #6_#1&#45;&gt;#6_#2 -->
<g id="edge22" class="edge"><title>#6_#1&#45;&gt;#6_#2</title>
<path fill="none" stroke="black" d="M229.955,-1567.8C230.503,-1556.16 231.238,-1540.55 231.864,-1527.24"/>
<polygon fill="black" stroke="black" points="235.364,-1527.33 232.338,-1517.18 228.371,-1527 235.364,-1527.33"/>
<text text-anchor="middle" x="249.146" y="-1538.8" font-family="Times,serif" font-size="14.00">A^B</text>
</g>
<!-- #6_#2&#45;&gt;#6_#5 -->
<g id="edge26" class="edge"><title>#6_#2&#45;&gt;#6_#5</title>
<path fill="none" stroke="black" d="M233.753,-1480.8C234.164,-1469.16 234.715,-1453.55 235.185,-1440.24"/>
<polygon fill="black" stroke="black" points="238.685,-1440.29 235.54,-1430.18 231.689,-1440.05 238.685,-1440.29"/>
<text text-anchor="middle" x="241.146" y="-1451.8" font-family="Times,serif" font-size="14.00">C</text>
</g>
<!-- #6_out_#5_B=&gt;C -->
<g id="node22" class="node"><title>#6_out_#5_B=&gt;C</title>
<polygon fill="white" stroke="white" points="280.146,-1343 192.146,-1343 192.146,-1307 280.146,-1307 280.146,-1343"/>
<text text-anchor="middle" x="236.146" y="-1321.3" font-family="Times,serif" font-size="14.00">#5 B=&gt;C</text>
</g>
<!-- #6_#5&#45;&gt;#6_out_#5_B=&gt;C -->
<g id="edge21" class="edge"><title>#6_#5&#45;&gt;#6_out_#5_B=&gt;C</title>
<path fill="none" stroke="black" d="M236.146,-1393.8C236.146,-1382.16 236.146,-1366.55 236.146,-1353.24"/>
<polygon fill="black" stroke="black" points="239.646,-1353.18 236.146,-1343.18 232.646,-1353.18 239.646,-1353.18"/>
<text text-anchor="middle" x="272.146" y="-1364.8" font-family="Times,serif" font-size="14.00">#5 B=&gt;C</text>
</g>
<!-- #6_out_#5_B=&gt;C&#45;&gt;#7_Up -->
<g id="edge57" class="edge"><title>#6_out_#5_B=&gt;C&#45;&gt;#7_Up</title>
<path fill="none" stroke="black" d="M236.146,-1299.28C236.146,-1293.07 236.146,-1286.38 236.146,-1280.07"/>
<polygon fill="black" stroke="black" points="239.646,-1280.03 236.146,-1270.03 232.646,-1280.03 239.646,-1280.03"/>
</g>
<!-- #6_Lamb -->
<g id="node23" class="node"><title>#6_Lamb</title>
<ellipse fill="skyblue" stroke="skyblue" cx="256.146" cy="-1854" rx="55.7903" ry="18"/>
<text text-anchor="middle" x="256.146" y="-1850.3" font-family="Times,serif" font-size="14.00">#6_Lamb</text>
</g>
<!-- #6_Lamb&#45;&gt;#6_in_#0_A -->
<g id="edge27" class="edge"><title>#6_Lamb&#45;&gt;#6_in_#0_A</title>
<path fill="none" stroke="black" d="M256.146,-1835.7C256.146,-1830.73 256.146,-1825.02 256.146,-1819.01"/>
<polygon fill="black" stroke="black" points="259.646,-1818.71 256.146,-1808.71 252.646,-1818.71 259.646,-1818.71"/>
</g>
<!-- #4_in_#0_B -->
<g id="node24" class="node"><title>#4_in_#0_B</title>
<polygon fill="white" stroke="white" points="319.146,-2293 265.146,-2293 265.146,-2257 319.146,-2257 319.146,-2293"/>
<text text-anchor="middle" x="292.146" y="-2271.3" font-family="Times,serif" font-size="14.00">#0 B</text>
</g>
<!-- #4_#0 -->
<g id="node26" class="node"><title>#4_#0</title>
<ellipse fill="white" stroke="white" cx="251.146" cy="-2188" rx="55.4913" ry="18"/>
<text text-anchor="middle" x="251.146" y="-2184.3" font-family="Times,serif" font-size="14.00">#0 sigma</text>
</g>
<!-- #4_in_#0_B&#45;&gt;#4_#0 -->
<g id="edge28" class="edge"><title>#4_in_#0_B&#45;&gt;#4_#0</title>
<path fill="none" stroke="black" d="M283.849,-2256.8C278.087,-2244.85 270.304,-2228.72 263.775,-2215.18"/>
<polygon fill="black" stroke="black" points="266.788,-2213.37 259.291,-2205.89 260.483,-2216.41 266.788,-2213.37"/>
<text text-anchor="middle" x="292.646" y="-2227.8" font-family="Times,serif" font-size="14.00">#0 B</text>
</g>
<!-- #4_in_#0_A -->
<g id="node25" class="node"><title>#4_in_#0_A</title>
<polygon fill="white" stroke="white" points="247.146,-2293 193.146,-2293 193.146,-2257 247.146,-2257 247.146,-2293"/>
<text text-anchor="middle" x="220.146" y="-2271.3" font-family="Times,serif" font-size="14.00">#0 A</text>
</g>
<!-- #4_in_#0_A&#45;&gt;#4_#0 -->
<g id="edge29" class="edge"><title>#4_in_#0_A&#45;&gt;#4_#0</title>
<path fill="none" stroke="black" d="M218.162,-2256.79C217.667,-2246.88 218.167,-2234.38 222.146,-2224 223.567,-2220.29 225.549,-2216.69 227.817,-2213.3"/>
<polygon fill="black" stroke="black" points="230.603,-2215.41 233.888,-2205.34 225.039,-2211.17 230.603,-2215.41"/>
<text text-anchor="middle" x="240.646" y="-2227.8" font-family="Times,serif" font-size="14.00">#0 A</text>
</g>
<!-- #4_#1 -->
<g id="node27" class="node"><title>#4_#1</title>
<ellipse fill="white" stroke="white" cx="256.146" cy="-2101" rx="61.99" ry="18"/>
<text text-anchor="middle" x="256.146" y="-2097.3" font-family="Times,serif" font-size="14.00">#1 gamma</text>
</g>
<!-- #4_#0&#45;&gt;#4_#1 -->
<g id="edge32" class="edge"><title>#4_#0&#45;&gt;#4_#1</title>
<path fill="none" stroke="black" d="M242.437,-2169.91C238.595,-2160.27 235.487,-2147.98 238.146,-2137 238.878,-2133.98 239.919,-2130.92 241.136,-2127.94"/>
<polygon fill="black" stroke="black" points="244.343,-2129.34 245.46,-2118.81 238.017,-2126.35 244.343,-2129.34"/>
<text text-anchor="middle" x="243.646" y="-2140.8" font-family="Times,serif" font-size="14.00">A</text>
</g>
<!-- #4_#0&#45;&gt;#4_#1 -->
<g id="edge33" class="edge"><title>#4_#0&#45;&gt;#4_#1</title>
<path fill="none" stroke="black" d="M252.158,-2169.8C252.842,-2158.16 253.761,-2142.55 254.544,-2129.24"/>
<polygon fill="black" stroke="black" points="258.042,-2129.36 255.136,-2119.18 251.054,-2128.95 258.042,-2129.36"/>
<text text-anchor="middle" x="259.646" y="-2140.8" font-family="Times,serif" font-size="14.00">B</text>
</g>
<!-- #4_#2 -->
<g id="node28" class="node"><title>#4_#2</title>
<ellipse fill="white" stroke="white" cx="256.146" cy="-2014" rx="30.5947" ry="18"/>
<text text-anchor="middle" x="256.146" y="-2010.3" font-family="Times,serif" font-size="14.00">#2 f</text>
</g>
<!-- #4_#1&#45;&gt;#4_#2 -->
<g id="edge31" class="edge"><title>#4_#1&#45;&gt;#4_#2</title>
<path fill="none" stroke="black" d="M256.146,-2082.8C256.146,-2071.16 256.146,-2055.55 256.146,-2042.24"/>
<polygon fill="black" stroke="black" points="259.646,-2042.18 256.146,-2032.18 252.646,-2042.18 259.646,-2042.18"/>
<text text-anchor="middle" x="273.146" y="-2053.8" font-family="Times,serif" font-size="14.00">A^B</text>
</g>
<!-- #4_out_#2_C -->
<g id="node29" class="node"><title>#4_out_#2_C</title>
<polygon fill="white" stroke="white" points="283.146,-1945 229.146,-1945 229.146,-1909 283.146,-1909 283.146,-1945"/>
<text text-anchor="middle" x="256.146" y="-1923.3" font-family="Times,serif" font-size="14.00">#2 C</text>
</g>
<!-- #4_#2&#45;&gt;#4_out_#2_C -->
<g id="edge30" class="edge"><title>#4_#2&#45;&gt;#4_out_#2_C</title>
<path fill="none" stroke="black" d="M256.146,-1995.8C256.146,-1984.16 256.146,-1968.55 256.146,-1955.24"/>
<polygon fill="black" stroke="black" points="259.646,-1955.18 256.146,-1945.18 252.646,-1955.18 259.646,-1955.18"/>
<text text-anchor="middle" x="274.646" y="-1966.8" font-family="Times,serif" font-size="14.00">#2 C</text>
</g>
<!-- #4_out_#2_C&#45;&gt;#6_Lamb -->
<g id="edge56" class="edge"><title>#4_out_#2_C&#45;&gt;#6_Lamb</title>
<path fill="none" stroke="black" d="M256.146,-1901.28C256.146,-1895.07 256.146,-1888.38 256.146,-1882.07"/>
<polygon fill="black" stroke="black" points="259.646,-1882.03 256.146,-1872.03 252.646,-1882.03 259.646,-1882.03"/>
</g>
<!-- #4_Comp -->
<g id="node30" class="node"><title>#4_Comp</title>
<ellipse fill="skyblue" stroke="skyblue" cx="220.146" cy="-2369" rx="56.59" ry="18"/>
<text text-anchor="middle" x="220.146" y="-2365.3" font-family="Times,serif" font-size="14.00">#4_Comp</text>
</g>
<!-- #4_Comp&#45;&gt;#4_in_#0_A -->
<g id="edge34" class="edge"><title>#4_Comp&#45;&gt;#4_in_#0_A</title>
<path fill="none" stroke="black" d="M220.146,-2350.7C220.146,-2345.73 220.146,-2340.02 220.146,-2334.01"/>
<polygon fill="black" stroke="black" points="223.646,-2333.71 220.146,-2323.71 216.646,-2333.71 223.646,-2333.71"/>
</g>
<!-- #3_in_#1_A -->
<g id="node31" class="node"><title>#3_in_#1_A</title>
<polygon fill="white" stroke="white" points="199.146,-2742 145.146,-2742 145.146,-2706 199.146,-2706 199.146,-2742"/>
<text text-anchor="middle" x="172.146" y="-2720.3" font-family="Times,serif" font-size="14.00">#1 A</text>
</g>
<!-- #3_#1 -->
<g id="node33" class="node"><title>#3_#1</title>
<ellipse fill="white" stroke="white" cx="137.146" cy="-2616" rx="61.99" ry="18"/>
<text text-anchor="middle" x="137.146" y="-2612.3" font-family="Times,serif" font-size="14.00">#1 gamma</text>
</g>
<!-- #3_in_#1_A&#45;&gt;#3_#1 -->
<g id="edge35" class="edge"><title>#3_in_#1_A&#45;&gt;#3_#1</title>
<path fill="none" stroke="black" d="M166.523,-2705.97C160.961,-2689.12 152.368,-2663.1 145.91,-2643.54"/>
<polygon fill="black" stroke="black" points="149.214,-2642.39 142.755,-2633.99 142.567,-2644.58 149.214,-2642.39"/>
<text text-anchor="middle" x="178.646" y="-2676.8" font-family="Times,serif" font-size="14.00">#1 A</text>
</g>
<!-- #3_in_#1_B -->
<g id="node32" class="node"><title>#3_in_#1_B</title>
<polygon fill="white" stroke="white" points="127.146,-2742 73.1459,-2742 73.1459,-2706 127.146,-2706 127.146,-2742"/>
<text text-anchor="middle" x="100.146" y="-2720.3" font-family="Times,serif" font-size="14.00">#1 B</text>
</g>
<!-- #3_in_#1_B&#45;&gt;#3_#1 -->
<g id="edge36" class="edge"><title>#3_in_#1_B&#45;&gt;#3_#1</title>
<path fill="none" stroke="black" d="M104.935,-2705.76C107.722,-2696.07 111.414,-2683.79 115.146,-2673 118.505,-2663.29 122.532,-2652.76 126.218,-2643.49"/>
<polygon fill="black" stroke="black" points="129.544,-2644.6 130.035,-2634.02 123.051,-2641.99 129.544,-2644.6"/>
<text text-anchor="middle" x="133.646" y="-2676.8" font-family="Times,serif" font-size="14.00">#1 B</text>
</g>
<!-- #3_#2 -->
<g id="node34" class="node"><title>#3_#2</title>
<ellipse fill="white" stroke="white" cx="155.146" cy="-2529" rx="30.5947" ry="18"/>
<text text-anchor="middle" x="155.146" y="-2525.3" font-family="Times,serif" font-size="14.00">#2 f</text>
</g>
<!-- #3_#1&#45;&gt;#3_#2 -->
<g id="edge38" class="edge"><title>#3_#1&#45;&gt;#3_#2</title>
<path fill="none" stroke="black" d="M140.788,-2597.8C143.269,-2586.09 146.603,-2570.34 149.434,-2556.97"/>
<polygon fill="black" stroke="black" points="152.922,-2557.39 151.57,-2546.89 146.074,-2555.94 152.922,-2557.39"/>
<text text-anchor="middle" x="165.146" y="-2568.8" font-family="Times,serif" font-size="14.00">A^B</text>
</g>
<!-- #3_out_#2_C -->
<g id="node35" class="node"><title>#3_out_#2_C</title>
<polygon fill="white" stroke="white" points="193.146,-2460 139.146,-2460 139.146,-2424 193.146,-2424 193.146,-2460"/>
<text text-anchor="middle" x="166.146" y="-2438.3" font-family="Times,serif" font-size="14.00">#2 C</text>
</g>
<!-- #3_#2&#45;&gt;#3_out_#2_C -->
<g id="edge37" class="edge"><title>#3_#2&#45;&gt;#3_out_#2_C</title>
<path fill="none" stroke="black" d="M157.372,-2510.8C158.878,-2499.16 160.899,-2483.55 162.621,-2470.24"/>
<polygon fill="black" stroke="black" points="166.111,-2470.54 163.923,-2460.18 159.169,-2469.64 166.111,-2470.54"/>
<text text-anchor="middle" x="180.646" y="-2481.8" font-family="Times,serif" font-size="14.00">#2 C</text>
</g>
<!-- #3_out_#2_C&#45;&gt;#4_Comp -->
<g id="edge55" class="edge"><title>#3_out_#2_C&#45;&gt;#4_Comp</title>
<path fill="none" stroke="black" d="M185.065,-2416.12C190.263,-2409.29 195.901,-2401.88 201.106,-2395.03"/>
<polygon fill="black" stroke="black" points="203.926,-2397.11 207.194,-2387.03 198.355,-2392.87 203.926,-2397.11"/>
</g>
<!-- #3_Comp -->
<g id="node36" class="node"><title>#3_Comp</title>
<ellipse fill="skyblue" stroke="skyblue" cx="100.146" cy="-2818" rx="56.59" ry="18"/>
<text text-anchor="middle" x="100.146" y="-2814.3" font-family="Times,serif" font-size="14.00">#3_Comp</text>
</g>
<!-- #3_Comp&#45;&gt;#3_in_#1_B -->
<g id="edge39" class="edge"><title>#3_Comp&#45;&gt;#3_in_#1_B</title>
<path fill="none" stroke="black" d="M100.146,-2799.7C100.146,-2794.73 100.146,-2789.02 100.146,-2783.01"/>
<polygon fill="black" stroke="black" points="103.646,-2782.71 100.146,-2772.71 96.646,-2782.71 103.646,-2782.71"/>
</g>
<!-- #2_in_#2_A^B -->
<g id="node37" class="node"><title>#2_in_#2_A^B</title>
<polygon fill="white" stroke="white" points="91.6459,-3083 16.6459,-3083 16.6459,-3047 91.6459,-3047 91.6459,-3083"/>
<text text-anchor="middle" x="54.1459" y="-3061.3" font-family="Times,serif" font-size="14.00">#2 A^B</text>
</g>
<!-- #2_#2 -->
<g id="node38" class="node"><title>#2_#2</title>
<ellipse fill="white" stroke="white" cx="53.1459" cy="-2978" rx="30.5947" ry="18"/>
<text text-anchor="middle" x="53.1459" y="-2974.3" font-family="Times,serif" font-size="14.00">#2 f</text>
</g>
<!-- #2_in_#2_A^B&#45;&gt;#2_#2 -->
<g id="edge40" class="edge"><title>#2_in_#2_A^B&#45;&gt;#2_#2</title>
<path fill="none" stroke="black" d="M53.9435,-3046.8C53.8066,-3035.16 53.6229,-3019.55 53.4663,-3006.24"/>
<polygon fill="black" stroke="black" points="56.9655,-3006.13 53.348,-2996.18 49.9659,-3006.22 56.9655,-3006.13"/>
<text text-anchor="middle" x="83.6459" y="-3017.8" font-family="Times,serif" font-size="14.00">#2 A^B</text>
</g>
<!-- #2_out_#2_C -->
<g id="node39" class="node"><title>#2_out_#2_C</title>
<polygon fill="white" stroke="white" points="90.1459,-2909 36.1459,-2909 36.1459,-2873 90.1459,-2873 90.1459,-2909"/>
<text text-anchor="middle" x="63.1459" y="-2887.3" font-family="Times,serif" font-size="14.00">#2 C</text>
</g>
<!-- #2_#2&#45;&gt;#2_out_#2_C -->
<g id="edge41" class="edge"><title>#2_#2&#45;&gt;#2_out_#2_C</title>
<path fill="none" stroke="black" d="M55.1696,-2959.8C56.5385,-2948.16 58.3756,-2932.55 59.9416,-2919.24"/>
<polygon fill="black" stroke="black" points="63.4328,-2919.52 61.1253,-2909.18 56.4807,-2918.7 63.4328,-2919.52"/>
<text text-anchor="middle" x="77.6459" y="-2930.8" font-family="Times,serif" font-size="14.00">#2 C</text>
</g>
<!-- #2_out_#2_C&#45;&gt;#3_Comp -->
<g id="edge53" class="edge"><title>#2_out_#2_C&#45;&gt;#3_Comp</title>
<path fill="none" stroke="black" d="M75.9826,-2865.37C79.4292,-2858.75 83.166,-2851.58 86.6474,-2844.9"/>
<polygon fill="black" stroke="black" points="89.7541,-2846.51 91.2717,-2836.03 83.5464,-2843.28 89.7541,-2846.51"/>
</g>
<!-- #2_Ent -->
<g id="node40" class="node"><title>#2_Ent</title>
<ellipse fill="skyblue" stroke="skyblue" cx="46.1459" cy="-3159" rx="46.2923" ry="18"/>
<text text-anchor="middle" x="46.1459" y="-3155.3" font-family="Times,serif" font-size="14.00">#2_Ent</text>
</g>
<!-- #2_Ent&#45;&gt;#2_in_#2_A^B -->
<g id="edge42" class="edge"><title>#2_Ent&#45;&gt;#2_in_#2_A^B</title>
<path fill="none" stroke="black" d="M47.6506,-3140.7C48.081,-3135.75 48.5756,-3130.06 49.0957,-3124.08"/>
<polygon fill="black" stroke="black" points="52.6086,-3124.08 49.9881,-3113.81 45.6349,-3123.47 52.6086,-3124.08"/>
</g>
<!-- #1_in_#1_A -->
<g id="node41" class="node"><title>#1_in_#1_A</title>
<polygon fill="white" stroke="white" points="251.146,-3083 197.146,-3083 197.146,-3047 251.146,-3047 251.146,-3083"/>
<text text-anchor="middle" x="224.146" y="-3061.3" font-family="Times,serif" font-size="14.00">#1 A</text>
</g>
<!-- #1_#1 -->
<g id="node43" class="node"><title>#1_#1</title>
<ellipse fill="white" stroke="white" cx="187.146" cy="-2978" rx="61.99" ry="18"/>
<text text-anchor="middle" x="187.146" y="-2974.3" font-family="Times,serif" font-size="14.00">#1 gamma</text>
</g>
<!-- #1_in_#1_A&#45;&gt;#1_#1 -->
<g id="edge43" class="edge"><title>#1_in_#1_A&#45;&gt;#1_#1</title>
<path fill="none" stroke="black" d="M216.658,-3046.8C211.459,-3034.85 204.435,-3018.72 198.543,-3005.18"/>
<polygon fill="black" stroke="black" points="201.696,-3003.66 194.496,-2995.89 195.278,-3006.45 201.696,-3003.66"/>
<text text-anchor="middle" x="226.646" y="-3017.8" font-family="Times,serif" font-size="14.00">#1 A</text>
</g>
<!-- #1_in_#1_B -->
<g id="node42" class="node"><title>#1_in_#1_B</title>
<polygon fill="white" stroke="white" points="179.146,-3083 125.146,-3083 125.146,-3047 179.146,-3047 179.146,-3083"/>
<text text-anchor="middle" x="152.146" y="-3061.3" font-family="Times,serif" font-size="14.00">#1 B</text>
</g>
<!-- #1_in_#1_B&#45;&gt;#1_#1 -->
<g id="edge44" class="edge"><title>#1_in_#1_B&#45;&gt;#1_#1</title>
<path fill="none" stroke="black" d="M149.914,-3046.69C149.336,-3036.75 149.836,-3024.25 154.146,-3014 155.784,-3010.1 158.066,-3006.38 160.671,-3002.91"/>
<polygon fill="black" stroke="black" points="163.326,-3005.19 167.189,-2995.32 158.017,-3000.63 163.326,-3005.19"/>
<text text-anchor="middle" x="172.646" y="-3017.8" font-family="Times,serif" font-size="14.00">#1 B</text>
</g>
<!-- #1_out_#1_A^B -->
<g id="node44" class="node"><title>#1_out_#1_A^B</title>
<polygon fill="white" stroke="white" points="205.646,-2909 130.646,-2909 130.646,-2873 205.646,-2873 205.646,-2909"/>
<text text-anchor="middle" x="168.146" y="-2887.3" font-family="Times,serif" font-size="14.00">#1 A^B</text>
</g>
<!-- #1_#1&#45;&gt;#1_out_#1_A^B -->
<g id="edge45" class="edge"><title>#1_#1&#45;&gt;#1_out_#1_A^B</title>
<path fill="none" stroke="black" d="M183.301,-2959.8C180.7,-2948.16 177.21,-2932.55 174.234,-2919.24"/>
<polygon fill="black" stroke="black" points="177.582,-2918.17 171.985,-2909.18 170.751,-2919.7 177.582,-2918.17"/>
<text text-anchor="middle" x="208.646" y="-2930.8" font-family="Times,serif" font-size="14.00">#1 A^B</text>
</g>
<!-- #1_out_#1_A^B&#45;&gt;#3_Comp -->
<g id="edge52" class="edge"><title>#1_out_#1_A^B&#45;&gt;#3_Comp</title>
<path fill="none" stroke="black" d="M144.493,-2865.3C137.58,-2858.09 130.036,-2850.21 123.163,-2843.03"/>
<polygon fill="black" stroke="black" points="125.432,-2840.34 115.987,-2835.54 120.376,-2845.18 125.432,-2840.34"/>
</g>
<!-- #1_Ent -->
<g id="node45" class="node"><title>#1_Ent</title>
<ellipse fill="skyblue" stroke="skyblue" cx="156.146" cy="-3159" rx="46.2923" ry="18"/>
<text text-anchor="middle" x="156.146" y="-3155.3" font-family="Times,serif" font-size="14.00">#1_Ent</text>
</g>
<!-- #1_Ent&#45;&gt;#1_in_#1_B -->
<g id="edge46" class="edge"><title>#1_Ent&#45;&gt;#1_in_#1_B</title>
<path fill="none" stroke="black" d="M155.394,-3140.7C155.178,-3135.75 154.931,-3130.06 154.671,-3124.08"/>
<polygon fill="black" stroke="black" points="158.156,-3123.65 154.225,-3113.81 151.163,-3123.96 158.156,-3123.65"/>
</g>
<!-- #0_in_#0_B -->
<g id="node46" class="node"><title>#0_in_#0_B</title>
<polygon fill="white" stroke="white" points="356.146,-2634 302.146,-2634 302.146,-2598 356.146,-2598 356.146,-2634"/>
<text text-anchor="middle" x="329.146" y="-2612.3" font-family="Times,serif" font-size="14.00">#0 B</text>
</g>
<!-- #0_#0 -->
<g id="node48" class="node"><title>#0_#0</title>
<ellipse fill="white" stroke="white" cx="293.146" cy="-2529" rx="55.4913" ry="18"/>
<text text-anchor="middle" x="293.146" y="-2525.3" font-family="Times,serif" font-size="14.00">#0 sigma</text>
</g>
<!-- #0_in_#0_B&#45;&gt;#0_#0 -->
<g id="edge47" class="edge"><title>#0_in_#0_B&#45;&gt;#0_#0</title>
<path fill="none" stroke="black" d="M321.861,-2597.8C316.802,-2585.85 309.967,-2569.72 304.235,-2556.18"/>
<polygon fill="black" stroke="black" points="307.42,-2554.73 300.297,-2546.89 300.974,-2557.46 307.42,-2554.73"/>
<text text-anchor="middle" x="331.646" y="-2568.8" font-family="Times,serif" font-size="14.00">#0 B</text>
</g>
<!-- #0_in_#0_A -->
<g id="node47" class="node"><title>#0_in_#0_A</title>
<polygon fill="white" stroke="white" points="284.146,-2634 230.146,-2634 230.146,-2598 284.146,-2598 284.146,-2634"/>
<text text-anchor="middle" x="257.146" y="-2612.3" font-family="Times,serif" font-size="14.00">#0 A</text>
</g>
<!-- #0_in_#0_A&#45;&gt;#0_#0 -->
<g id="edge48" class="edge"><title>#0_in_#0_A&#45;&gt;#0_#0</title>
<path fill="none" stroke="black" d="M258.695,-2597.77C260.045,-2587.85 262.545,-2575.35 267.146,-2565 268.681,-2561.55 270.606,-2558.11 272.712,-2554.81"/>
<polygon fill="black" stroke="black" points="275.668,-2556.69 278.559,-2546.5 269.943,-2552.66 275.668,-2556.69"/>
<text text-anchor="middle" x="285.646" y="-2568.8" font-family="Times,serif" font-size="14.00">#0 A</text>
</g>
<!-- #0_out_#0_A -->
<g id="node49" class="node"><title>#0_out_#0_A</title>
<polygon fill="white" stroke="white" points="284.146,-2460 230.146,-2460 230.146,-2424 284.146,-2424 284.146,-2460"/>
<text text-anchor="middle" x="257.146" y="-2438.3" font-family="Times,serif" font-size="14.00">#0 A</text>
</g>
<!-- #0_#0&#45;&gt;#0_out_#0_A -->
<g id="edge49" class="edge"><title>#0_#0&#45;&gt;#0_out_#0_A</title>
<path fill="none" stroke="black" d="M272.948,-2512.13C267.476,-2506.7 262.22,-2500.16 259.146,-2493 256.165,-2486.05 254.979,-2478.06 254.712,-2470.52"/>
<polygon fill="black" stroke="black" points="258.215,-2470.38 254.856,-2460.34 251.215,-2470.29 258.215,-2470.38"/>
<text text-anchor="middle" x="277.646" y="-2481.8" font-family="Times,serif" font-size="14.00">#0 A</text>
</g>
<!-- #0_out_#0_B -->
<g id="node50" class="node"><title>#0_out_#0_B</title>
<polygon fill="white" stroke="white" points="356.146,-2460 302.146,-2460 302.146,-2424 356.146,-2424 356.146,-2460"/>
<text text-anchor="middle" x="329.146" y="-2438.3" font-family="Times,serif" font-size="14.00">#0 B</text>
</g>
<!-- #0_#0&#45;&gt;#0_out_#0_B -->
<g id="edge50" class="edge"><title>#0_#0&#45;&gt;#0_out_#0_B</title>
<path fill="none" stroke="black" d="M300.431,-2510.8C305.457,-2498.93 312.235,-2482.93 317.944,-2469.45"/>
<polygon fill="black" stroke="black" points="321.194,-2470.75 321.872,-2460.18 314.749,-2468.02 321.194,-2470.75"/>
<text text-anchor="middle" x="331.646" y="-2481.8" font-family="Times,serif" font-size="14.00">#0 B</text>
</g>
<!-- #0_out_#0_B&#45;&gt;#4_Comp -->
<g id="edge54" class="edge"><title>#0_out_#0_B&#45;&gt;#4_Comp</title>
<path fill="none" stroke="black" d="M293.146,-2416C280.38,-2407.55 266.173,-2398.52 253.71,-2390.71"/>
<polygon fill="black" stroke="black" points="255.325,-2387.59 244.988,-2385.27 251.62,-2393.53 255.325,-2387.59"/>
</g>
<!-- #0_Ent -->
<g id="node51" class="node"><title>#0_Ent</title>
<ellipse fill="skyblue" stroke="skyblue" cx="263.146" cy="-2724" rx="46.2923" ry="18"/>
<text text-anchor="middle" x="263.146" y="-2720.3" font-family="Times,serif" font-size="14.00">#0_Ent</text>
</g>
<!-- #0_Ent&#45;&gt;#0_in_#0_A -->
<g id="edge51" class="edge"><title>#0_Ent&#45;&gt;#0_in_#0_A</title>
<path fill="none" stroke="black" d="M262.182,-2705.97C261.691,-2697.3 261.062,-2686.19 260.417,-2674.79"/>
<polygon fill="black" stroke="black" points="263.908,-2674.53 259.849,-2664.75 256.919,-2674.93 263.908,-2674.53"/>
</g>
</g>
</svg>
